<svg xmlns="http://www.w3.org/2000/svg" xmlns:xlink="http://www.w3.org/1999/xlink" viewBox="0 0 210.86 210.86"><defs><style>.cls-1{mask:url(#mask);filter:url(#luminosity-noclip-3);}.cls-2,.cls-4{mix-blend-mode:multiply;}.cls-2{fill:url(#radial-gradient);}.cls-3{mask:url(#mask-2);filter:url(#luminosity-noclip-4);}.cls-4{fill:url(#radial-gradient-2);}.cls-5{isolation:isolate;}.cls-6{mask:url(#mask-3);}.cls-7,.cls-9{mix-blend-mode:screen;}.cls-7{fill:url(#radial-gradient-3);}.cls-8{mask:url(#mask-4);}.cls-9{fill:url(#radial-gradient-4);}.cls-10{filter:url(#luminosity-noclip-2);}.cls-11{filter:url(#luminosity-noclip);}</style><filter id="luminosity-noclip" x="0" y="-8062.81" width="210.86" height="32766" filterUnits="userSpaceOnUse" color-interpolation-filters="sRGB"><feFlood flood-color="#fff" result="bg"/><feBlend in="SourceGraphic" in2="bg"/></filter><mask id="mask" x="0" y="-8062.81" width="210.86" height="32766" maskUnits="userSpaceOnUse"><g class="cls-11"/></mask><radialGradient id="radial-gradient" cx="105.43" cy="105.43" r="98.44" gradientUnits="userSpaceOnUse"><stop offset="0.56" stop-color="#fff"/><stop offset="0.76" stop-color="#8f8f8f"/><stop offset="1"/></radialGradient><filter id="luminosity-noclip-2" x="40.39" y="-8062.81" width="130.09" height="32766" filterUnits="userSpaceOnUse" color-interpolation-filters="sRGB"><feFlood flood-color="#fff" result="bg"/><feBlend in="SourceGraphic" in2="bg"/></filter><mask id="mask-2" x="40.39" y="-8062.81" width="130.09" height="32766" maskUnits="userSpaceOnUse"><g class="cls-10"/></mask><radialGradient id="radial-gradient-2" cx="105.43" cy="105.43" r="64.12" gradientUnits="userSpaceOnUse"><stop offset="0.66" stop-color="#fff"/><stop offset="0.83" stop-color="#fff"/><stop offset="0.84" stop-color="#f7f7f7"/><stop offset="0.87" stop-color="#e0e0e0"/><stop offset="0.9" stop-color="#bababa"/><stop offset="0.93" stop-color="#868686"/><stop offset="0.97" stop-color="#444"/><stop offset="1"/></radialGradient><filter id="luminosity-noclip-3" x="0" y="0" width="210.86" height="210.86" filterUnits="userSpaceOnUse" color-interpolation-filters="sRGB"><feFlood flood-color="#fff" result="bg"/><feBlend in="SourceGraphic" in2="bg"/></filter><mask id="mask-3" x="0" y="0" width="210.86" height="210.86" maskUnits="userSpaceOnUse"><g class="cls-1"><path class="cls-2" d="M210.86,105.43A105.43,105.43,0,1,1,105.43,0,105.43,105.43,0,0,1,210.86,105.43Z"/></g></mask><radialGradient id="radial-gradient-3" cx="105.43" cy="105.43" r="98.44" gradientUnits="userSpaceOnUse"><stop offset="0.56" stop-color="#0b9fec"/><stop offset="0.77" stop-color="#06547c"/><stop offset="1"/></radialGradient><filter id="luminosity-noclip-4" x="40.39" y="40.39" width="130.09" height="130.09" filterUnits="userSpaceOnUse" color-interpolation-filters="sRGB"><feFlood flood-color="#fff" result="bg"/><feBlend in="SourceGraphic" in2="bg"/></filter><mask id="mask-4" x="40.39" y="40.39" width="130.09" height="130.09" maskUnits="userSpaceOnUse"><g class="cls-3"><path class="cls-4" d="M170.47,105.43a65,65,0,1,1-65-65A65,65,0,0,1,170.47,105.43Z"/></g></mask><radialGradient id="radial-gradient-4" cx="105.43" cy="105.43" r="64.12" gradientUnits="userSpaceOnUse"><stop offset="0.66" stop-color="#f6ffff"/><stop offset="0.73" stop-color="#ceffff"/><stop offset="0.79" stop-color="#b4ffff"/><stop offset="0.83" stop-color="#abffff"/><stop offset="0.84" stop-color="#a5f7f7"/><stop offset="0.87" stop-color="#96e0e0"/><stop offset="0.9" stop-color="#7dbaba"/><stop offset="0.93" stop-color="#5a8686"/><stop offset="0.97" stop-color="#2d4444"/><stop offset="1"/></radialGradient></defs><g class="cls-5"><g id="Camada_2" data-name="Camada 2"><g id="Layer_1" data-name="Layer 1"><g class="cls-6"><path class="cls-7" d="M210.86,105.43A105.43,105.43,0,1,1,105.43,0,105.43,105.43,0,0,1,210.86,105.43Z"/></g><g class="cls-8"><path class="cls-9" d="M170.47,105.43a65,65,0,1,1-65-65A65,65,0,0,1,170.47,105.43Z"/></g></g></g></g></svg>