<svg xmlns="http://www.w3.org/2000/svg" xmlns:xlink="http://www.w3.org/1999/xlink" viewBox="0 0 198.45 190.86"><defs><style>.cls-1{mask:url(#mask);filter:url(#luminosity-noclip-7);}.cls-10,.cls-12,.cls-2,.cls-4,.cls-6,.cls-8{mix-blend-mode:multiply;}.cls-15,.cls-2{fill:url(#radial-gradient);}.cls-3{mask:url(#mask-2);filter:url(#luminosity-noclip-12);}.cls-25,.cls-4{fill:url(#radial-gradient-2);}.cls-5{mask:url(#mask-3);filter:url(#luminosity-noclip-8);}.cls-17,.cls-6{fill:url(#radial-gradient-3);}.cls-7{mask:url(#mask-4);filter:url(#luminosity-noclip-9);}.cls-19,.cls-8{fill:url(#radial-gradient-4);}.cls-9{mask:url(#mask-5);filter:url(#luminosity-noclip-10);}.cls-10,.cls-21{fill:url(#radial-gradient-5);}.cls-11{mask:url(#mask-6);filter:url(#luminosity-noclip-11);}.cls-12,.cls-23{fill:url(#radial-gradient-6);}.cls-13{isolation:isolate;}.cls-14{mask:url(#mask-7);}.cls-15,.cls-17,.cls-19,.cls-21,.cls-23,.cls-25{opacity:0.5;mix-blend-mode:screen;}.cls-16{mask:url(#mask-8);}.cls-18{mask:url(#mask-9);}.cls-20{mask:url(#mask-10);}.cls-22{mask:url(#mask-11);}.cls-24{mask:url(#mask-12);}.cls-26{filter:url(#luminosity-noclip-6);}.cls-27{filter:url(#luminosity-noclip-5);}.cls-28{filter:url(#luminosity-noclip-4);}.cls-29{filter:url(#luminosity-noclip-3);}.cls-30{filter:url(#luminosity-noclip-2);}.cls-31{filter:url(#luminosity-noclip);}</style><filter id="luminosity-noclip" x="187.27" y="-8066.51" width="11.17" height="32766" filterUnits="userSpaceOnUse" color-interpolation-filters="sRGB"><feFlood flood-color="#fff" result="bg"/><feBlend in="SourceGraphic" in2="bg"/></filter><mask id="mask" x="187.27" y="-8066.51" width="11.17" height="32766" maskUnits="userSpaceOnUse"><g class="cls-31"/></mask><radialGradient id="radial-gradient" cx="192.86" cy="24.03" r="5.59" gradientUnits="userSpaceOnUse"><stop offset="0.19" stop-color="#fff"/><stop offset="0.39" stop-color="#c6c6c6"/><stop offset="0.83" stop-color="#393939"/><stop offset="1"/></radialGradient><filter id="luminosity-noclip-2" x="166.2" y="-8066.51" width="5.59" height="32766" filterUnits="userSpaceOnUse" color-interpolation-filters="sRGB"><feFlood flood-color="#fff" result="bg"/><feBlend in="SourceGraphic" in2="bg"/></filter><mask id="mask-2" x="166.2" y="-8066.51" width="5.59" height="32766" maskUnits="userSpaceOnUse"><g class="cls-30"/></mask><radialGradient id="radial-gradient-2" cx="169" cy="188.07" r="2.79" xlink:href="#radial-gradient"/><filter id="luminosity-noclip-3" x="0" y="-8066.51" width="5.59" height="32766" filterUnits="userSpaceOnUse" color-interpolation-filters="sRGB"><feFlood flood-color="#fff" result="bg"/><feBlend in="SourceGraphic" in2="bg"/></filter><mask id="mask-3" x="0" y="-8066.51" width="5.59" height="32766" maskUnits="userSpaceOnUse"><g class="cls-29"/></mask><radialGradient id="radial-gradient-3" cx="2.79" cy="154.35" r="2.79" xlink:href="#radial-gradient"/><filter id="luminosity-noclip-4" x="171.11" y="-8066.51" width="5.59" height="32766" filterUnits="userSpaceOnUse" color-interpolation-filters="sRGB"><feFlood flood-color="#fff" result="bg"/><feBlend in="SourceGraphic" in2="bg"/></filter><mask id="mask-4" x="171.11" y="-8066.51" width="5.59" height="32766" maskUnits="userSpaceOnUse"><g class="cls-28"/></mask><radialGradient id="radial-gradient-4" cx="173.9" cy="52.99" r="2.79" xlink:href="#radial-gradient"/><filter id="luminosity-noclip-5" x="12.53" y="-8066.51" width="5.59" height="32766" filterUnits="userSpaceOnUse" color-interpolation-filters="sRGB"><feFlood flood-color="#fff" result="bg"/><feBlend in="SourceGraphic" in2="bg"/></filter><mask id="mask-5" x="12.53" y="-8066.51" width="5.59" height="32766" maskUnits="userSpaceOnUse"><g class="cls-27"/></mask><radialGradient id="radial-gradient-5" cx="15.33" cy="37.67" r="2.79" xlink:href="#radial-gradient"/><filter id="luminosity-noclip-6" x="118.25" y="-8066.51" width="5.59" height="32766" filterUnits="userSpaceOnUse" color-interpolation-filters="sRGB"><feFlood flood-color="#fff" result="bg"/><feBlend in="SourceGraphic" in2="bg"/></filter><mask id="mask-6" x="118.25" y="-8066.51" width="5.59" height="32766" maskUnits="userSpaceOnUse"><g class="cls-26"/></mask><radialGradient id="radial-gradient-6" cx="121.04" cy="2.79" r="2.79" xlink:href="#radial-gradient"/><filter id="luminosity-noclip-7" x="187.27" y="18.45" width="11.17" height="11.17" filterUnits="userSpaceOnUse" color-interpolation-filters="sRGB"><feFlood flood-color="#fff" result="bg"/><feBlend in="SourceGraphic" in2="bg"/></filter><mask id="mask-7" x="187.27" y="18.45" width="11.17" height="11.17" maskUnits="userSpaceOnUse"><g class="cls-1"><path class="cls-2" d="M198.45,24a5.59,5.59,0,1,1-5.59-5.58A5.59,5.59,0,0,1,198.45,24Z"/></g></mask><filter id="luminosity-noclip-8" x="0" y="151.56" width="5.59" height="5.58" filterUnits="userSpaceOnUse" color-interpolation-filters="sRGB"><feFlood flood-color="#fff" result="bg"/><feBlend in="SourceGraphic" in2="bg"/></filter><mask id="mask-8" x="0" y="151.56" width="5.59" height="5.58" maskUnits="userSpaceOnUse"><g class="cls-5"><path class="cls-6" d="M5.59,154.35a2.8,2.8,0,1,1-2.8-2.79A2.79,2.79,0,0,1,5.59,154.35Z"/></g></mask><filter id="luminosity-noclip-9" x="171.11" y="50.2" width="5.59" height="5.59" filterUnits="userSpaceOnUse" color-interpolation-filters="sRGB"><feFlood flood-color="#fff" result="bg"/><feBlend in="SourceGraphic" in2="bg"/></filter><mask id="mask-9" x="171.11" y="50.2" width="5.59" height="5.59" maskUnits="userSpaceOnUse"><g class="cls-7"><path class="cls-8" d="M176.69,53a2.79,2.79,0,1,1-2.79-2.79A2.79,2.79,0,0,1,176.69,53Z"/></g></mask><filter id="luminosity-noclip-10" x="12.53" y="34.87" width="5.59" height="5.58" filterUnits="userSpaceOnUse" color-interpolation-filters="sRGB"><feFlood flood-color="#fff" result="bg"/><feBlend in="SourceGraphic" in2="bg"/></filter><mask id="mask-10" x="12.53" y="34.87" width="5.59" height="5.58" maskUnits="userSpaceOnUse"><g class="cls-9"><path class="cls-10" d="M18.12,37.67a2.8,2.8,0,1,1-2.79-2.8A2.79,2.79,0,0,1,18.12,37.67Z"/></g></mask><filter id="luminosity-noclip-11" x="118.25" y="0" width="5.59" height="5.58" filterUnits="userSpaceOnUse" color-interpolation-filters="sRGB"><feFlood flood-color="#fff" result="bg"/><feBlend in="SourceGraphic" in2="bg"/></filter><mask id="mask-11" x="118.25" y="0" width="5.59" height="5.58" maskUnits="userSpaceOnUse"><g class="cls-11"><path class="cls-12" d="M123.84,2.79A2.8,2.8,0,1,1,121,0,2.79,2.79,0,0,1,123.84,2.79Z"/></g></mask><filter id="luminosity-noclip-12" x="166.2" y="185.27" width="5.59" height="5.59" filterUnits="userSpaceOnUse" color-interpolation-filters="sRGB"><feFlood flood-color="#fff" result="bg"/><feBlend in="SourceGraphic" in2="bg"/></filter><mask id="mask-12" x="166.2" y="185.27" width="5.59" height="5.59" maskUnits="userSpaceOnUse"><g class="cls-3"><path class="cls-4" d="M171.79,188.07a2.8,2.8,0,1,1-2.79-2.8A2.79,2.79,0,0,1,171.79,188.07Z"/></g></mask></defs><g class="cls-13"><g id="Camada_2" data-name="Camada 2"><g id="Layer_1" data-name="Layer 1"><g class="cls-14"><path class="cls-15" d="M198.45,24a5.59,5.59,0,1,1-5.59-5.58A5.59,5.59,0,0,1,198.45,24Z"/></g><g class="cls-16"><path class="cls-17" d="M5.59,154.35a2.8,2.8,0,1,1-2.8-2.79A2.79,2.79,0,0,1,5.59,154.35Z"/></g><g class="cls-18"><path class="cls-19" d="M176.69,53a2.79,2.79,0,1,1-2.79-2.79A2.79,2.79,0,0,1,176.69,53Z"/></g><g class="cls-20"><path class="cls-21" d="M18.12,37.67a2.8,2.8,0,1,1-2.79-2.8A2.79,2.79,0,0,1,18.12,37.67Z"/></g><g class="cls-22"><path class="cls-23" d="M123.84,2.79A2.8,2.8,0,1,1,121,0,2.79,2.79,0,0,1,123.84,2.79Z"/></g><g class="cls-24"><path class="cls-25" d="M171.79,188.07a2.8,2.8,0,1,1-2.79-2.8A2.79,2.79,0,0,1,171.79,188.07Z"/></g></g></g></g></svg>