<svg xmlns="http://www.w3.org/2000/svg" xmlns:xlink="http://www.w3.org/1999/xlink" viewBox="0 0 5.65 6.45"><defs><style>.cls-1{fill:none;}.cls-2{isolation:isolate;}.cls-3{clip-path:url(#clip-path);}.cls-4{fill:#406169;}.cls-5{fill:#45666e;}.cls-6{fill:#496c73;}.cls-7{fill:#4e7179;}.cls-8{fill:#53777e;}.cls-9{fill:#587c83;}.cls-10{fill:#5c8288;}.cls-11{fill:#61878d;}.cls-12{fill:#668c93;}.cls-13{fill:#6b9298;}.cls-14{fill:#6f979d;}.cls-15{fill:#749da2;}.cls-16{fill:#79a2a7;}.cls-17{fill:#7da7ac;}.cls-18{fill:#82adb2;}.cls-19{fill:#87b2b7;}.cls-20{fill:#8cb8bc;}.cls-21{fill:#90bdc1;}.cls-22{fill:#95c3c6;}.cls-23{fill:#9ac8cc;}.cls-24{fill:#9fcdd1;}.cls-25{fill:#a3d3d6;}.cls-26{fill:#a8d8db;}.cls-27{fill:#addee0;}.cls-28{fill:#b2e3e6;}.cls-29{fill:#b6e9eb;}.cls-30{fill:#bbeef0;}.cls-31,.cls-61{mix-blend-mode:multiply;}.cls-31{fill:url(#Áåçûìÿííûé_ãðàäèåíò_8463);}.cls-275,.cls-276,.cls-32,.cls-33,.cls-335,.cls-336,.cls-34{mix-blend-mode:screen;}.cls-32{fill:url(#Áåçûìÿííûé_ãðàäèåíò_8462);}.cls-34{fill:#88f3d6;}.cls-35{fill:#83eace;opacity:0.96;}.cls-36{fill:#7ee0c6;opacity:0.92;}.cls-37{fill:#78d7bd;opacity:0.88;}.cls-38{fill:#73ceb5;opacity:0.85;}.cls-39{fill:#6ec4ad;opacity:0.81;}.cls-40{fill:#69bba5;opacity:0.77;}.cls-41{fill:#63b29c;opacity:0.73;}.cls-42{fill:#5ea894;opacity:0.69;}.cls-43{fill:#599f8c;opacity:0.65;}.cls-44{fill:#549684;opacity:0.62;}.cls-45{fill:#4e8c7b;opacity:0.58;}.cls-46{fill:#498373;opacity:0.54;}.cls-47{fill:#447a6b;opacity:0.5;}.cls-48{fill:#3f7063;opacity:0.46;}.cls-49{fill:#3a675b;opacity:0.42;}.cls-50{fill:#345d52;opacity:0.38;}.cls-51{fill:#2f544a;opacity:0.35;}.cls-52{fill:#2a4b42;opacity:0.31;}.cls-53{fill:#25413a;opacity:0.27;}.cls-54{fill:#1f3831;opacity:0.23;}.cls-55{fill:#1a2f29;opacity:0.19;}.cls-56{fill:#152521;opacity:0.15;}.cls-57{fill:#101c19;opacity:0.12;}.cls-58{fill:#0a1310;opacity:0.08;}.cls-59{fill:#050908;opacity:0.04;}.cls-144,.cls-278,.cls-60{opacity:0;}.cls-62,.cls-63,.cls-64{fill:#5179b5;}.cls-100,.cls-101,.cls-102,.cls-103,.cls-104,.cls-105,.cls-106,.cls-107,.cls-108,.cls-109,.cls-110,.cls-111,.cls-112,.cls-113,.cls-114,.cls-115,.cls-116,.cls-117,.cls-118,.cls-62,.cls-65,.cls-66,.cls-67,.cls-70,.cls-71,.cls-72,.cls-73,.cls-74,.cls-75,.cls-76,.cls-77,.cls-78,.cls-79,.cls-80,.cls-81,.cls-82,.cls-83,.cls-84,.cls-85,.cls-86,.cls-87,.cls-88,.cls-89,.cls-90,.cls-91,.cls-92,.cls-93,.cls-96,.cls-97,.cls-98,.cls-99{opacity:0.57;}.cls-63,.cls-68,.cls-94{opacity:0.57;}.cls-64,.cls-69,.cls-95{opacity:0.57;}.cls-65{fill:#5178b4;}.cls-66{fill:#5177b3;}.cls-67{fill:#537cb6;}.cls-68{fill:#5681b9;}.cls-69{fill:#5886bc;}.cls-70{fill:#5a8cbf;}.cls-71{fill:#5d91c1;}.cls-72{fill:#5f96c4;}.cls-73{fill:#619bc7;}.cls-74{fill:#63a0ca;}.cls-75{fill:#66a5cd;}.cls-76{fill:#68abd0;}.cls-77{fill:#6ab0d3;}.cls-78{fill:#6db5d6;}.cls-79{fill:#6fbad8;}.cls-80{fill:#71bfdb;}.cls-81{fill:#74c4de;}.cls-82{fill:#76c9e1;}.cls-83{fill:#78cfe4;}.cls-84{fill:#7bd4e7;}.cls-85{fill:#7dd9ea;}.cls-86{fill:#7fdeed;}.cls-87{fill:#81e3f0;}.cls-88{fill:#84e8f2;}.cls-89{fill:#86eef5;}.cls-90{fill:#88f3f8;}.cls-91{fill:#8bf8fb;}.cls-92{fill:#8dfdfe;}.cls-93{fill:#8bf9fc;}.cls-94{fill:#89f5fb;}.cls-95{fill:#87f0f9;}.cls-96{fill:#85ecf7;}.cls-97{fill:#83e8f6;}.cls-98{fill:#81e4f4;}.cls-99{fill:#7fe0f2;}.cls-100{fill:#7ddbf1;}.cls-101{fill:#7bd7ef;}.cls-102{fill:#79d3ed;}.cls-103{fill:#77cfec;}.cls-104{fill:#75cbea;}.cls-105{fill:#73c7e9;}.cls-106{fill:#71c2e7;}.cls-107{fill:#6fbee5;}.cls-108{fill:#6dbae4;}.cls-109{fill:#6bb6e2;}.cls-110{fill:#69b2e0;}.cls-111{fill:#67addf;}.cls-112{fill:#65a9dd;}.cls-113{fill:#63a5db;}.cls-114{fill:#61a1da;}.cls-115{fill:#5f9dd8;}.cls-116{fill:#5d98d6;}.cls-117{fill:#5b94d5;}.cls-118{fill:#5990d3;}.cls-119{fill:#5991d4;opacity:0.55;}.cls-120{fill:#5a92d5;opacity:0.53;}.cls-121{fill:#5a93d6;opacity:0.5;}.cls-122{fill:#5a94d8;opacity:0.48;}.cls-123{fill:#5a95d9;opacity:0.46;}.cls-124{fill:#5b96da;opacity:0.44;}.cls-125{fill:#5b96db;opacity:0.42;}.cls-126{fill:#5b97dc;opacity:0.39;}.cls-127{fill:#5b98dd;opacity:0.37;}.cls-128{fill:#5c99df;opacity:0.35;}.cls-129{fill:#5c9ae0;opacity:0.33;}.cls-130{fill:#5c9be1;opacity:0.31;}.cls-131{fill:#5d9ce2;opacity:0.29;}.cls-132{fill:#5d9de3;opacity:0.26;}.cls-133{fill:#5d9ee4;opacity:0.24;}.cls-134,.cls-150{fill:#5d9fe5;}.cls-134{opacity:0.22;}.cls-135{fill:#5ea0e7;opacity:0.2;}.cls-136{fill:#5ea1e8;opacity:0.18;}.cls-137,.cls-148{fill:#5ea2e9;}.cls-137{opacity:0.15;}.cls-138{fill:#5ea2ea;opacity:0.13;}.cls-139{fill:#5fa3eb;opacity:0.11;}.cls-140{fill:#5fa4ec;opacity:0.09;}.cls-141{fill:#5fa5ee;opacity:0.07;}.cls-142{fill:#5fa6ef;opacity:0.04;}.cls-143{fill:#60a7f0;opacity:0.02;}.cls-144{fill:#60a8f1;}.cls-145{fill:#5fa7ef;opacity:0.04;}.cls-146{fill:#5fa5ed;opacity:0.08;}.cls-147{fill:#5ea4eb;opacity:0.12;}.cls-148{opacity:0.15;}.cls-149{fill:#5da1e7;opacity:0.19;}.cls-150{opacity:0.23;}.cls-151{fill:#5c9ee3;opacity:0.27;}.cls-152{fill:#5c9ce1;opacity:0.31;}.cls-153{fill:#5b9bdf;opacity:0.35;}.cls-154{fill:#5b99dd;opacity:0.38;}.cls-155{fill:#5a98db;opacity:0.42;}.cls-156{fill:#5a96d9;opacity:0.46;}.cls-157{fill:#5995d7;opacity:0.5;}.cls-158{fill:#5894d5;opacity:0.54;}.cls-159{fill:#5892d3;opacity:0.58;}.cls-160{fill:#5791d1;opacity:0.62;}.cls-161{fill:#578fcf;opacity:0.65;}.cls-162{fill:#568ecd;opacity:0.69;}.cls-163{fill:#568ccb;opacity:0.73;}.cls-164{fill:#558bc9;opacity:0.77;}.cls-165{fill:#5589c7;opacity:0.81;}.cls-166{fill:#5488c5;opacity:0.85;}.cls-167{fill:#5486c3;opacity:0.88;}.cls-168{fill:#5385c1;opacity:0.92;}.cls-169{fill:#5383bf;opacity:0.96;}.cls-170,.cls-171{fill:#5282bd;}.cls-171{opacity:0.98;}.cls-172,.cls-173{fill:#5283be;}.cls-172{opacity:0.96;}.cls-173{opacity:0.94;}.cls-174,.cls-175{fill:#5284be;}.cls-174{opacity:0.93;}.cls-175{opacity:0.91;}.cls-176,.cls-177,.cls-178{fill:#5285bf;}.cls-176{opacity:0.89;}.cls-177{opacity:0.87;}.cls-178{opacity:0.85;}.cls-179{fill:#5286bf;opacity:0.83;}.cls-180{fill:#5286c0;opacity:0.82;}.cls-181,.cls-182{fill:#5287c0;}.cls-181{opacity:0.8;}.cls-182{opacity:0.78;}.cls-183,.cls-184,.cls-185{fill:#5388c1;}.cls-183{opacity:0.76;}.cls-184{opacity:0.74;}.cls-185{opacity:0.72;}.cls-186{fill:#5389c1;opacity:0.7;}.cls-187{fill:#5389c2;opacity:0.69;}.cls-188,.cls-189,.cls-190{fill:#538ac2;}.cls-188{opacity:0.67;}.cls-189{opacity:0.65;}.cls-190{opacity:0.63;}.cls-191,.cls-192{fill:#538bc3;}.cls-191{opacity:0.61;}.cls-192{opacity:0.59;}.cls-193,.cls-194{fill:#538cc3;}.cls-193{opacity:0.58;}.cls-194{opacity:0.56;}.cls-195,.cls-196{fill:#538dc4;}.cls-195{opacity:0.54;}.cls-196{opacity:0.52;}.cls-197{fill:#548fc6;opacity:0.54;}.cls-198{fill:#5591c9;opacity:0.56;}.cls-199{fill:#5693cb;opacity:0.58;}.cls-200{fill:#5696cd;opacity:0.59;}.cls-201{fill:#5798cf;opacity:0.61;}.cls-202{fill:#589ad2;opacity:0.63;}.cls-203{fill:#599cd4;opacity:0.65;}.cls-204{fill:#5a9ed6;opacity:0.67;}.cls-205{fill:#5ba0d8;opacity:0.69;}.cls-206{fill:#5ba3db;opacity:0.7;}.cls-207{fill:#5ca5dd;opacity:0.72;}.cls-208{fill:#5da7df;opacity:0.74;}.cls-209{fill:#5ea9e2;opacity:0.76;}.cls-210{fill:#5fabe4;opacity:0.78;}.cls-211{fill:#60ade6;opacity:0.8;}.cls-212{fill:#61afe8;opacity:0.82;}.cls-213{fill:#61b2eb;opacity:0.83;}.cls-214{fill:#62b4ed;opacity:0.85;}.cls-215{fill:#63b6ef;opacity:0.87;}.cls-216{fill:#64b8f1;opacity:0.89;}.cls-217{fill:#65baf4;opacity:0.91;}.cls-218{fill:#66bcf6;opacity:0.93;}.cls-219{fill:#66bff8;opacity:0.94;}.cls-220{fill:#67c1fa;opacity:0.96;}.cls-221,.cls-249{fill:#68c3fd;}.cls-221{opacity:0.98;}.cls-222,.cls-223,.cls-224,.cls-225,.cls-226,.cls-227,.cls-228,.cls-229,.cls-230,.cls-231,.cls-232,.cls-233,.cls-234,.cls-235,.cls-236,.cls-237,.cls-238,.cls-239,.cls-240,.cls-241,.cls-242,.cls-243,.cls-244,.cls-245,.cls-246,.cls-247,.cls-248{fill:#69c5ff;}.cls-223{opacity:0.97;}.cls-224{opacity:0.94;}.cls-225{opacity:0.91;}.cls-226{opacity:0.88;}.cls-227{opacity:0.84;}.cls-228{opacity:0.81;}.cls-229{opacity:0.78;}.cls-230{opacity:0.75;}.cls-231{opacity:0.72;}.cls-232{opacity:0.69;}.cls-233{opacity:0.66;}.cls-234{opacity:0.63;}.cls-235{opacity:0.6;}.cls-236{opacity:0.56;}.cls-237{opacity:0.53;}.cls-238{opacity:0.5;}.cls-239{opacity:0.47;}.cls-240{opacity:0.44;}.cls-241{opacity:0.41;}.cls-242{opacity:0.38;}.cls-243{opacity:0.35;}.cls-244{opacity:0.31;}.cls-245{opacity:0.28;}.cls-246{opacity:0.25;}.cls-247{opacity:0.22;}.cls-248,.cls-249,.cls-250,.cls-251,.cls-252,.cls-253,.cls-254,.cls-256,.cls-257,.cls-258,.cls-259,.cls-260,.cls-261,.cls-262,.cls-263,.cls-264,.cls-265,.cls-266,.cls-267,.cls-268,.cls-269,.cls-270,.cls-271,.cls-272,.cls-273,.cls-274{opacity:0.19;}.cls-250{fill:#68c1fb;}.cls-251{fill:#67bff9;}.cls-252{fill:#66bdf7;}.cls-253{fill:#65bbf5;}.cls-254{fill:#65b9f3;}.cls-255{fill:#64b8f2;opacity:0.19;}.cls-256{fill:#63b6f0;}.cls-257{fill:#62b4ee;}.cls-258{fill:#62b2ec;}.cls-259{fill:#61b0ea;}.cls-260{fill:#60aee8;}.cls-261{fill:#60ace6;}.cls-262{fill:#5faae4;}.cls-263{fill:#5ea8e2;}.cls-264{fill:#5da6e0;}.cls-265{fill:#5da4de;}.cls-266{fill:#5ca2dc;}.cls-267{fill:#5ba0da;}.cls-268{fill:#5a9fd9;}.cls-269{fill:#5a9dd7;}.cls-270{fill:#599bd5;}.cls-271{fill:#5899d3;}.cls-272{fill:#5797d1;}.cls-273{fill:#5795cf;}.cls-274{fill:#5693cd;}.cls-275{opacity:0.95;fill:url(#radial-gradient);}.cls-276{opacity:0.18;fill:url(#linear-gradient);}.cls-277{opacity:0.21;}.cls-278,.cls-279,.cls-280,.cls-281,.cls-282,.cls-283,.cls-284,.cls-285,.cls-286,.cls-287,.cls-288,.cls-289,.cls-290,.cls-291,.cls-292,.cls-293,.cls-294,.cls-295,.cls-296,.cls-297,.cls-298,.cls-299,.cls-300,.cls-301,.cls-302,.cls-303,.cls-304,.cls-305,.cls-306,.cls-307,.cls-308,.cls-309,.cls-310,.cls-311,.cls-312,.cls-313,.cls-314,.cls-315,.cls-316,.cls-317,.cls-318,.cls-319,.cls-320,.cls-321,.cls-322,.cls-323,.cls-324,.cls-325,.cls-326,.cls-327,.cls-328,.cls-329,.cls-330,.cls-331,.cls-332,.cls-333,.cls-334{fill:#fff;}.cls-279{opacity:0.02;}.cls-280{opacity:0.04;}.cls-281{opacity:0.05;}.cls-282{opacity:0.07;}.cls-283{opacity:0.09;}.cls-284{opacity:0.11;}.cls-285{opacity:0.13;}.cls-286{opacity:0.14;}.cls-287{opacity:0.16;}.cls-288{opacity:0.18;}.cls-289{opacity:0.2;}.cls-290{opacity:0.21;}.cls-291{opacity:0.23;}.cls-292{opacity:0.25;}.cls-293{opacity:0.27;}.cls-294{opacity:0.29;}.cls-295{opacity:0.3;}.cls-296{opacity:0.32;}.cls-297{opacity:0.34;}.cls-298{opacity:0.36;}.cls-299{opacity:0.38;}.cls-300{opacity:0.39;}.cls-301{opacity:0.41;}.cls-302{opacity:0.43;}.cls-303{opacity:0.45;}.cls-304{opacity:0.46;}.cls-305{opacity:0.48;}.cls-306{opacity:0.5;}.cls-307{opacity:0.52;}.cls-308{opacity:0.54;}.cls-309{opacity:0.55;}.cls-310{opacity:0.57;}.cls-311{opacity:0.59;}.cls-312{opacity:0.61;}.cls-313{opacity:0.63;}.cls-314{opacity:0.64;}.cls-315{opacity:0.66;}.cls-316{opacity:0.68;}.cls-317{opacity:0.7;}.cls-318{opacity:0.71;}.cls-319{opacity:0.73;}.cls-320{opacity:0.75;}.cls-321{opacity:0.77;}.cls-322{opacity:0.79;}.cls-323{opacity:0.8;}.cls-324{opacity:0.82;}.cls-325{opacity:0.84;}.cls-326{opacity:0.86;}.cls-327{opacity:0.88;}.cls-328{opacity:0.89;}.cls-329{opacity:0.91;}.cls-330{opacity:0.93;}.cls-331{opacity:0.95;}.cls-332{opacity:0.96;}.cls-333{opacity:0.98;}.cls-335,.cls-336{opacity:0.48;}.cls-335{fill:url(#Áåçûìÿííûé_ãðàäèåíò_8464);}.cls-336{fill:url(#radial-gradient-2);}</style><clipPath id="clip-path" transform="translate(0.75 1.63)"><path class="cls-1" d="M3.89,2.26A1.63,1.63,0,1,1,2.26.63,1.63,1.63,0,0,1,3.89,2.26Z"/></clipPath><linearGradient id="Áåçûìÿííûé_ãðàäèåíò_8463" x1="2.92" y1="0.77" x2="1.61" y2="3.76" gradientUnits="userSpaceOnUse"><stop offset="0" stop-color="#61c5ff"/><stop offset="1" stop-color="#55aadb"/></linearGradient><linearGradient id="Áåçûìÿííûé_ãðàäèåíò_8462" x1="2.92" y1="0.77" x2="1.61" y2="3.76" gradientUnits="userSpaceOnUse"><stop offset="0.01" stop-color="#82faff"/><stop offset="0.25" stop-color="#559faa"/><stop offset="0.36" stop-color="#437b88"/></linearGradient><radialGradient id="radial-gradient" cx="17.51" cy="22.38" r="2.66" gradientTransform="matrix(0.56, -0.24, 0.47, 1.1, -17.38, -19.18)" gradientUnits="userSpaceOnUse"><stop offset="0.17" stop-color="#6cd0fe"/><stop offset="0.19" stop-color="#67c6f2"/><stop offset="0.34" stop-color="#488ba9"/><stop offset="0.49" stop-color="#2e596d"/><stop offset="0.62" stop-color="#1a333e"/><stop offset="0.73" stop-color="#0c171c"/><stop offset="0.83" stop-color="#030607"/><stop offset="0.89"/></radialGradient><linearGradient id="linear-gradient" x1="2.92" y1="0.77" x2="1.61" y2="3.76" gradientUnits="userSpaceOnUse"><stop offset="0.01" stop-color="#46f7ff"/><stop offset="0.16" stop-color="#34b6c2"/><stop offset="0.32" stop-color="#247c8c"/><stop offset="0.47" stop-color="#174e61"/><stop offset="0.6" stop-color="#0e2d42"/><stop offset="0.71" stop-color="#08182f"/><stop offset="0.78" stop-color="#061128"/></linearGradient><radialGradient id="Áåçûìÿííûé_ãðàäèåíò_8464" cx="2.26" cy="2.26" r="1.67" gradientUnits="userSpaceOnUse"><stop offset="0.25"/><stop offset="0.31" stop-color="#05090a"/><stop offset="0.4" stop-color="#132126"/><stop offset="0.52" stop-color="#2a4853"/><stop offset="0.66" stop-color="#4a7e91"/><stop offset="0.68" stop-color="#4e8599"/><stop offset="0.86" stop-color="#7ba4b3"/></radialGradient><radialGradient id="radial-gradient-2" cx="2.26" cy="2.26" r="2.26" gradientUnits="userSpaceOnUse"><stop offset="0.04" stop-color="#fff"/><stop offset="0.74" stop-color="#4e8599"/><stop offset="0.75" stop-color="#4a7e91"/><stop offset="0.82" stop-color="#2a4853"/><stop offset="0.87" stop-color="#132126"/><stop offset="0.92" stop-color="#05090a"/><stop offset="0.94"/></radialGradient></defs><g class="cls-2"><g id="Camada_2" data-name="Camada 2"><g id="_00" data-name="00"><g id="_04" data-name="04"><g class="cls-3"><path class="cls-4" d="M3.89,2.26A1.63,1.63,0,1,1,2.26.63,1.63,1.63,0,0,1,3.89,2.26Z" transform="translate(0.75 1.63)"/><path class="cls-5" d="M3.87,2.23A1.6,1.6,0,1,1,2.29.65,1.6,1.6,0,0,1,3.87,2.23Z" transform="translate(0.75 1.63)"/><path class="cls-6" d="M3.85,2.2A1.56,1.56,0,1,1,2.32.67,1.56,1.56,0,0,1,3.85,2.2Z" transform="translate(0.75 1.63)"/><path class="cls-7" d="M3.83,2.17A1.53,1.53,0,1,1,2.34.69,1.53,1.53,0,0,1,3.83,2.17Z" transform="translate(0.75 1.63)"/><path class="cls-8" d="M3.8,2.14A1.48,1.48,0,0,1,2.26,3.68,1.47,1.47,0,0,1,.82,2.25,1.5,1.5,0,0,1,2.37.7,1.48,1.48,0,0,1,3.8,2.14Z" transform="translate(0.75 1.63)"/><path class="cls-9" d="M3.78,2.11A1.45,1.45,0,0,1,2.25,3.63,1.44,1.44,0,0,1,.87,2.25a1.46,1.46,0,1,1,2.91-.14Z" transform="translate(0.75 1.63)"/><path class="cls-10" d="M3.76,2.07A1.42,1.42,0,0,1,2.25,3.58,1.42,1.42,0,1,1,2.42.74,1.4,1.4,0,0,1,3.76,2.07Z" transform="translate(0.75 1.63)"/><path class="cls-11" d="M3.74,2A1.39,1.39,0,1,1,2.45.75,1.39,1.39,0,0,1,3.74,2Z" transform="translate(0.75 1.63)"/><path class="cls-12" d="M3.72,2A1.36,1.36,0,0,1,2.25,3.48,1.33,1.33,0,0,1,1,2.24,1.35,1.35,0,0,1,2.47.77,1.33,1.33,0,0,1,3.72,2Z" transform="translate(0.75 1.63)"/><path class="cls-13" d="M3.69,2A1.32,1.32,0,0,1,2.25,3.43a1.31,1.31,0,0,1-1.2-1.2A1.32,1.32,0,0,1,2.5.79,1.29,1.29,0,0,1,3.69,2Z" transform="translate(0.75 1.63)"/><path class="cls-14" d="M3.67,2A1.28,1.28,0,0,1,2.25,3.37,1.25,1.25,0,0,1,1.1,2.23,1.29,1.29,0,0,1,2.53.8,1.26,1.26,0,0,1,3.67,2Z" transform="translate(0.75 1.63)"/><path class="cls-15" d="M3.65,1.92a1.25,1.25,0,0,1-1.4,1.4,1.22,1.22,0,0,1-1.1-1.1A1.25,1.25,0,0,1,2.55.82,1.22,1.22,0,0,1,3.65,1.92Z" transform="translate(0.75 1.63)"/><path class="cls-16" d="M3.63,1.89A1.22,1.22,0,0,1,2.24,3.27a1.2,1.2,0,0,1-1.05-1A1.23,1.23,0,0,1,2.58.84,1.18,1.18,0,0,1,3.63,1.89Z" transform="translate(0.75 1.63)"/><path class="cls-17" d="M3.61,1.85A1.2,1.2,0,0,1,2.24,3.22a1.15,1.15,0,0,1-1-1A1.2,1.2,0,0,1,2.6.85,1.17,1.17,0,0,1,3.61,1.85Z" transform="translate(0.75 1.63)"/><path class="cls-18" d="M3.58,1.82A1.16,1.16,0,0,1,2.24,3.17a1.12,1.12,0,0,1-1-1A1.16,1.16,0,0,1,2.63.87,1.1,1.1,0,0,1,3.58,1.82Z" transform="translate(0.75 1.63)"/><path class="cls-19" d="M3.56,1.79A1.13,1.13,0,0,1,2.24,3.12a1.1,1.1,0,0,1-.91-.91A1.13,1.13,0,0,1,2.66.89,1.06,1.06,0,0,1,3.56,1.79Z" transform="translate(0.75 1.63)"/><path class="cls-20" d="M3.54,1.76a1.1,1.1,0,0,1-1.3,1.3,1,1,0,0,1-.86-.85A1.1,1.1,0,0,1,2.68.9,1.05,1.05,0,0,1,3.54,1.76Z" transform="translate(0.75 1.63)"/><path class="cls-21" d="M3.52,1.73A1.07,1.07,0,0,1,2.24,3a1,1,0,0,1-.81-.81A1.07,1.07,0,0,1,2.71.92,1,1,0,0,1,3.52,1.73Z" transform="translate(0.75 1.63)"/><path class="cls-22" d="M3.5,1.7A1,1,0,0,1,2.23,3a1,1,0,0,1-.76-.76A1,1,0,0,1,2.74.94,1,1,0,0,1,3.5,1.7Z" transform="translate(0.75 1.63)"/><path class="cls-23" d="M3.47,1.67A1,1,0,0,1,2.23,2.91a.92.92,0,0,1-.71-.71A1,1,0,0,1,2.76,1,.93.93,0,0,1,3.47,1.67Z" transform="translate(0.75 1.63)"/><path class="cls-24" d="M3.45,1.63A1,1,0,0,1,2.23,2.86a.9.9,0,0,1-.66-.67A1,1,0,0,1,2.79,1,.89.89,0,0,1,3.45,1.63Z" transform="translate(0.75 1.63)"/><path class="cls-25" d="M3.43,1.6a1,1,0,0,1-1.2,1.2.85.85,0,0,1-.62-.61A1,1,0,0,1,2.82,1,.86.86,0,0,1,3.43,1.6Z" transform="translate(0.75 1.63)"/><path class="cls-26" d="M3.41,1.57A.93.93,0,0,1,2.23,2.75a.82.82,0,0,1-.57-.56A.93.93,0,0,1,2.84,1,.84.84,0,0,1,3.41,1.57Z" transform="translate(0.75 1.63)"/><path class="cls-27" d="M3.39,1.54A.9.9,0,0,1,2.23,2.7a.77.77,0,0,1-.52-.52A.9.9,0,0,1,2.87,1,.82.82,0,0,1,3.39,1.54Z" transform="translate(0.75 1.63)"/><path class="cls-28" d="M3.36,1.51A.87.87,0,0,1,2.22,2.65a.78.78,0,0,1-.47-.47A.88.88,0,0,1,2.89,1,.73.73,0,0,1,3.36,1.51Z" transform="translate(0.75 1.63)"/><path class="cls-29" d="M3.34,1.48A.85.85,0,0,1,2.22,2.6a.75.75,0,0,1-.42-.42A.85.85,0,0,1,2.92,1.06.7.7,0,0,1,3.34,1.48Z" transform="translate(0.75 1.63)"/><path class="cls-30" d="M3.32,1.45a.83.83,0,0,1-1.1,1.1.72.72,0,0,1-.37-.38A.82.82,0,0,1,3,1.07.72.72,0,0,1,3.32,1.45Z" transform="translate(0.75 1.63)"/><path class="cls-31" d="M3.89,2.26A1.63,1.63,0,1,1,2.26.63,1.63,1.63,0,0,1,3.89,2.26Z" transform="translate(0.75 1.63)"/><path class="cls-32" d="M3.89,2.26A1.63,1.63,0,1,1,2.26.63,1.63,1.63,0,0,1,3.89,2.26Z" transform="translate(0.75 1.63)"/><g class="cls-33"><path class="cls-34" d="M3.89,1.79c.45,1.07,1.45,2.21,0,2.88C2.13,5.44.63,3.16.63,2.26A1.63,1.63,0,0,1,2.26.63,1.55,1.55,0,0,1,3.89,1.79Z" transform="translate(0.75 1.63)"/><path class="cls-35" d="M3.86,1.81C4.29,2.87,5.23,4,3.77,4.64,2.08,5.38.61,3.17.61,2.27A1.62,1.62,0,0,1,2.24.65,1.53,1.53,0,0,1,3.86,1.81Z" transform="translate(0.75 1.63)"/><path class="cls-36" d="M3.83,1.84C4.24,2.89,5.12,4,3.68,4.61,2,5.32.6,3.17.6,2.28A1.61,1.61,0,0,1,2.21.66,1.54,1.54,0,0,1,3.83,1.84Z" transform="translate(0.75 1.63)"/><path class="cls-37" d="M3.8,1.86C4.2,2.91,5,4,3.6,4.58c-1.62.68-3-1.41-3-2.3A1.61,1.61,0,0,1,2.19.67,1.53,1.53,0,0,1,3.8,1.86Z" transform="translate(0.75 1.63)"/><path class="cls-38" d="M3.77,1.89c.38,1,1.12,2.09-.26,2.66C1.93,5.2.56,3.17.56,2.29A1.61,1.61,0,0,1,2.17.69,1.53,1.53,0,0,1,3.77,1.89Z" transform="translate(0.75 1.63)"/><path class="cls-39" d="M3.75,1.91c.35,1,1,2.06-.32,2.61C1.87,5.14.54,3.18.54,2.3A1.6,1.6,0,0,1,2.14.7,1.54,1.54,0,0,1,3.75,1.91Z" transform="translate(0.75 1.63)"/><path class="cls-40" d="M3.72,1.94c.33,1,.95,2-.38,2.55C1.82,5.08.52,3.18.52,2.3A1.6,1.6,0,0,1,2.12.71,1.55,1.55,0,0,1,3.72,1.94Z" transform="translate(0.75 1.63)"/><path class="cls-41" d="M3.69,2c.31,1,.87,2-.43,2.5C1.77,5,.5,3.18.5,2.31A1.59,1.59,0,0,1,2.09.73,1.53,1.53,0,0,1,3.69,2Z" transform="translate(0.75 1.63)"/><path class="cls-42" d="M3.66,2c.3,1,.79,2-.49,2.44C1.72,5,.48,3.19.48,2.32A1.59,1.59,0,0,1,2.07.74,1.52,1.52,0,0,1,3.66,2Z" transform="translate(0.75 1.63)"/><path class="cls-43" d="M3.63,2c.28,1,.71,2-.55,2.39C1.67,4.9.46,3.19.46,2.32A1.58,1.58,0,0,1,2,.75,1.53,1.53,0,0,1,3.63,2Z" transform="translate(0.75 1.63)"/><path class="cls-44" d="M3.6,2C3.86,3,4.23,4,3,4.37S.44,3.19.44,2.33A1.57,1.57,0,0,1,2,.77,1.52,1.52,0,0,1,3.6,2Z" transform="translate(0.75 1.63)"/><path class="cls-45" d="M3.57,2.06C3.82,3,4.12,4,2.91,4.34S.42,3.2.42,2.34A1.56,1.56,0,0,1,2,.78,1.52,1.52,0,0,1,3.57,2.06Z" transform="translate(0.75 1.63)"/><path class="cls-46" d="M3.54,2.09C3.77,3,4,3.94,2.83,4.31S.4,3.2.4,2.34A1.56,1.56,0,0,1,2,.79,1.52,1.52,0,0,1,3.54,2.09Z" transform="translate(0.75 1.63)"/><path class="cls-47" d="M3.51,2.11c.21.94.39,1.83-.77,2.17S.38,3.2.38,2.35A1.55,1.55,0,0,1,1.94.81,1.52,1.52,0,0,1,3.51,2.11Z" transform="translate(0.75 1.63)"/><path class="cls-48" d="M3.48,2.14c.2.93.31,1.79-.82,2.11S.36,3.2.36,2.36A1.55,1.55,0,0,1,1.92.82,1.51,1.51,0,0,1,3.48,2.14Z" transform="translate(0.75 1.63)"/><path class="cls-49" d="M3.45,2.16c.18.92.23,1.77-.88,2.06S.34,3.21.34,2.36A1.54,1.54,0,0,1,1.9.84,1.5,1.5,0,0,1,3.45,2.16Z" transform="translate(0.75 1.63)"/><path class="cls-50" d="M3.42,2.19c.16.91.14,1.73-.94,2S.32,3.21.32,2.37A1.53,1.53,0,0,1,1.87.85,1.5,1.5,0,0,1,3.42,2.19Z" transform="translate(0.75 1.63)"/><path class="cls-51" d="M3.4,2.21c.14.9.05,1.71-1,2A1.9,1.9,0,0,1,.3,2.38,1.53,1.53,0,0,1,1.85.86,1.51,1.51,0,0,1,3.4,2.21Z" transform="translate(0.75 1.63)"/><path class="cls-52" d="M3.37,2.24c.12.88,0,1.68-1.06,1.89a1.85,1.85,0,0,1-2-1.75A1.52,1.52,0,0,1,1.82.88,1.51,1.51,0,0,1,3.37,2.24Z" transform="translate(0.75 1.63)"/><path class="cls-53" d="M3.34,2.26c.11.88-.11,1.65-1.11,1.84a1.8,1.8,0,0,1-2-1.71A1.52,1.52,0,0,1,1.8.89,1.5,1.5,0,0,1,3.34,2.26Z" transform="translate(0.75 1.63)"/><path class="cls-54" d="M3.31,2.29c.09.86-.19,1.62-1.17,1.78A1.76,1.76,0,0,1,.24,2.4,1.52,1.52,0,0,1,1.77.9,1.51,1.51,0,0,1,3.31,2.29Z" transform="translate(0.75 1.63)"/><path class="cls-55" d="M3.28,2.31A1.42,1.42,0,0,1,2.06,4,1.71,1.71,0,0,1,.22,2.4,1.5,1.5,0,0,1,1.75.92,1.49,1.49,0,0,1,3.28,2.31Z" transform="translate(0.75 1.63)"/><path class="cls-56" d="M3.25,2.34A1.43,1.43,0,0,1,2,4,1.67,1.67,0,0,1,.2,2.41,1.5,1.5,0,0,1,1.72.93,1.49,1.49,0,0,1,3.25,2.34Z" transform="translate(0.75 1.63)"/><path class="cls-57" d="M3.22,2.36A1.43,1.43,0,0,1,1.88,4,1.62,1.62,0,0,1,.18,2.42,1.5,1.5,0,0,1,1.7.94,1.49,1.49,0,0,1,3.22,2.36Z" transform="translate(0.75 1.63)"/><path class="cls-58" d="M3.19,2.39A1.44,1.44,0,0,1,1.8,4,1.58,1.58,0,0,1,.16,2.42,1.49,1.49,0,0,1,1.68,1,1.48,1.48,0,0,1,3.19,2.39Z" transform="translate(0.75 1.63)"/><path class="cls-59" d="M3.16,2.41A1.46,1.46,0,0,1,1.71,3.92,1.52,1.52,0,0,1,.14,2.43,1.49,1.49,0,0,1,1.65,1,1.48,1.48,0,0,1,3.16,2.41Z" transform="translate(0.75 1.63)"/><path class="cls-60" d="M3.13,2.44a1.48,1.48,0,0,1-1.5,1.45A1.48,1.48,0,0,1,.12,2.44,1.48,1.48,0,0,1,1.63,1,1.48,1.48,0,0,1,3.13,2.44Z" transform="translate(0.75 1.63)"/></g><g class="cls-33"><path class="cls-34" d="M3.89,1.57C4.34,3.21,4.1,4,2.62,4.65.9,5.43.63,3,.63,2.07A1.62,1.62,0,0,1,2.26.45C3.16.45,3.67.74,3.89,1.57Z" transform="translate(0.75 1.63)"/><path class="cls-35" d="M3.86,1.59C4.29,3.2,4,4,2.58,4.62.89,5.36.61,3,.61,2.08A1.63,1.63,0,0,1,2.24.46,1.42,1.42,0,0,1,3.86,1.59Z" transform="translate(0.75 1.63)"/><path class="cls-36" d="M3.83,1.62C4.24,3.2,4,4,2.54,4.58.89,5.29.6,3,.6,2.09A1.62,1.62,0,0,1,2.21.47,1.43,1.43,0,0,1,3.83,1.62Z" transform="translate(0.75 1.63)"/><path class="cls-37" d="M3.8,1.65c.39,1.54.11,2.3-1.3,2.89C.88,5.23.58,3,.58,2.09A1.61,1.61,0,0,1,2.19.49,1.42,1.42,0,0,1,3.8,1.65Z" transform="translate(0.75 1.63)"/><path class="cls-38" d="M3.77,1.67c.37,1.52.08,2.27-1.3,2.84C.88,5.16.56,3,.56,2.1A1.61,1.61,0,0,1,2.17.5,1.42,1.42,0,0,1,3.77,1.67Z" transform="translate(0.75 1.63)"/><path class="cls-39" d="M3.75,1.7c.34,1.48,0,2.23-1.32,2.77C.88,5.09.54,3,.54,2.11A1.6,1.6,0,0,1,2.14.51,1.45,1.45,0,0,1,3.75,1.7Z" transform="translate(0.75 1.63)"/><path class="cls-40" d="M3.72,1.72c.32,1.46,0,2.2-1.33,2.71C.87,5,.52,3,.52,2.11A1.59,1.59,0,0,1,2.12.53,1.44,1.44,0,0,1,3.72,1.72Z" transform="translate(0.75 1.63)"/><path class="cls-41" d="M3.69,1.75C4,3.17,3.66,3.9,2.35,4.4.87,5,.5,3,.5,2.12A1.59,1.59,0,0,1,2.09.54,1.45,1.45,0,0,1,3.69,1.75Z" transform="translate(0.75 1.63)"/><path class="cls-42" d="M3.66,1.78C4,3.17,3.59,3.89,2.31,4.36.86,4.89.48,3,.48,2.13A1.59,1.59,0,0,1,2.07.55,1.45,1.45,0,0,1,3.66,1.78Z" transform="translate(0.75 1.63)"/><path class="cls-43" d="M3.63,1.8A1.87,1.87,0,0,1,2.28,4.32C.86,4.82.46,3,.46,2.13A1.57,1.57,0,0,1,2,.57,1.45,1.45,0,0,1,3.63,1.8Z" transform="translate(0.75 1.63)"/><path class="cls-44" d="M3.6,1.83A1.85,1.85,0,0,1,2.24,4.29C.85,4.76.44,3,.44,2.14A1.57,1.57,0,0,1,2,.58,1.45,1.45,0,0,1,3.6,1.83Z" transform="translate(0.75 1.63)"/><path class="cls-45" d="M3.57,1.86A1.81,1.81,0,0,1,2.2,4.25C.85,4.69.42,3,.42,2.15A1.56,1.56,0,0,1,2,.59,1.46,1.46,0,0,1,3.57,1.86Z" transform="translate(0.75 1.63)"/><path class="cls-46" d="M3.54,1.88A1.78,1.78,0,0,1,2.16,4.21C.85,4.62.4,3,.4,2.15A1.55,1.55,0,0,1,2,.61,1.45,1.45,0,0,1,3.54,1.88Z" transform="translate(0.75 1.63)"/><path class="cls-47" d="M3.51,1.91A1.76,1.76,0,0,1,2.12,4.18C.84,4.56.38,3,.38,2.16A1.55,1.55,0,0,1,1.94.62,1.45,1.45,0,0,1,3.51,1.91Z" transform="translate(0.75 1.63)"/><path class="cls-48" d="M3.48,1.93a1.74,1.74,0,0,1-1.4,2.21C.84,4.49.36,3,.36,2.17A1.55,1.55,0,0,1,1.92.63,1.46,1.46,0,0,1,3.48,1.93Z" transform="translate(0.75 1.63)"/><path class="cls-49" d="M3.45,2A1.7,1.7,0,0,1,2.05,4.1C.84,4.42.34,3,.34,2.17A1.54,1.54,0,0,1,1.9.65,1.45,1.45,0,0,1,3.45,2Z" transform="translate(0.75 1.63)"/><path class="cls-50" d="M3.42,2A1.68,1.68,0,0,1,2,4.07C.83,4.36.32,3,.32,2.18A1.53,1.53,0,0,1,1.87.66,1.46,1.46,0,0,1,3.42,2Z" transform="translate(0.75 1.63)"/><path class="cls-51" d="M3.4,2A1.67,1.67,0,0,1,2,4C.83,4.29.3,3,.3,2.19A1.53,1.53,0,0,1,1.85.67,1.48,1.48,0,0,1,3.4,2Z" transform="translate(0.75 1.63)"/><path class="cls-52" d="M3.37,2A1.64,1.64,0,0,1,1.93,4C.82,4.22.28,3,.28,2.19A1.52,1.52,0,0,1,1.82.69,1.48,1.48,0,0,1,3.37,2Z" transform="translate(0.75 1.63)"/><path class="cls-53" d="M3.34,2.06A1.62,1.62,0,0,1,1.89,4C.82,4.16.26,3,.26,2.2A1.52,1.52,0,0,1,1.8.7,1.48,1.48,0,0,1,3.34,2.06Z" transform="translate(0.75 1.63)"/><path class="cls-54" d="M3.31,2.09A1.6,1.6,0,0,1,1.86,3.92C.82,4.09.24,3,.24,2.21A1.52,1.52,0,0,1,1.77.71,1.48,1.48,0,0,1,3.31,2.09Z" transform="translate(0.75 1.63)"/><path class="cls-55" d="M3.28,2.12A1.59,1.59,0,0,1,1.82,3.89C.81,4,.22,3,.22,2.21A1.5,1.5,0,0,1,1.75.73,1.48,1.48,0,0,1,3.28,2.12Z" transform="translate(0.75 1.63)"/><path class="cls-56" d="M3.25,2.14A1.56,1.56,0,0,1,1.78,3.85,1.53,1.53,0,0,1,.2,2.22,1.5,1.5,0,0,1,1.72.74,1.48,1.48,0,0,1,3.25,2.14Z" transform="translate(0.75 1.63)"/><path class="cls-57" d="M3.22,2.17A1.53,1.53,0,0,1,1.74,3.81,1.51,1.51,0,0,1,.18,2.23,1.5,1.5,0,0,1,1.7.75,1.48,1.48,0,0,1,3.22,2.17Z" transform="translate(0.75 1.63)"/><path class="cls-58" d="M3.19,2.2A1.53,1.53,0,0,1,1.7,3.78,1.51,1.51,0,0,1,.16,2.23,1.49,1.49,0,0,1,1.68.77,1.47,1.47,0,0,1,3.19,2.2Z" transform="translate(0.75 1.63)"/><path class="cls-59" d="M3.16,2.22a1.5,1.5,0,0,1-1.5,1.52,1.48,1.48,0,1,1,0-3A1.48,1.48,0,0,1,3.16,2.22Z" transform="translate(0.75 1.63)"/><ellipse class="cls-60" cx="2.38" cy="3.87" rx="1.51" ry="1.45"/></g><g class="cls-61"><path class="cls-62" d="M4.9,1.94A2.74,2.74,0,0,0,2.05-.76,2.84,2.84,0,0,0-.75,2.08,2.75,2.75,0,0,0,2.1,4.78,2.84,2.84,0,0,0,4.9,1.94Z" transform="translate(0.75 1.63)"/><path class="cls-62" d="M4.87,1.94A2.73,2.73,0,0,0,2.05-.76,2.81,2.81,0,0,0-.72,2.07,2.74,2.74,0,0,0,2.1,4.78,2.83,2.83,0,0,0,4.87,1.94Z" transform="translate(0.75 1.63)"/><path class="cls-63" d="M4.84,1.94A2.72,2.72,0,0,0,2-.76,2.8,2.8,0,0,0-.7,2.07a2.73,2.73,0,0,0,2.8,2.7A2.82,2.82,0,0,0,4.84,1.94Z" transform="translate(0.75 1.63)"/><path class="cls-64" d="M4.81,1.94A2.71,2.71,0,0,0,2-.76,2.78,2.78,0,0,0-.67,2.06a2.7,2.7,0,0,0,2.76,2.7A2.8,2.8,0,0,0,4.81,1.94Z" transform="translate(0.75 1.63)"/><path class="cls-62" d="M4.78,1.93A2.69,2.69,0,0,0,2-.76,2.77,2.77,0,0,0-.65,2.06,2.69,2.69,0,0,0,2.09,4.75,2.78,2.78,0,0,0,4.78,1.93Z" transform="translate(0.75 1.63)"/><path class="cls-62" d="M4.74,1.93A2.66,2.66,0,0,0,2-.76,2.75,2.75,0,0,0-.62,2.05a2.67,2.67,0,0,0,2.71,2.7A2.76,2.76,0,0,0,4.74,1.93Z" transform="translate(0.75 1.63)"/><path class="cls-62" d="M4.71,1.93A2.65,2.65,0,0,0,2-.76,2.74,2.74,0,0,0-.6,2.05,2.67,2.67,0,0,0,2.08,4.74,2.74,2.74,0,0,0,4.71,1.93Z" transform="translate(0.75 1.63)"/><path class="cls-65" d="M4.68,1.92A2.64,2.64,0,0,0,2-.76,2.74,2.74,0,0,0-.58,2.05,2.65,2.65,0,0,0,2.08,4.73,2.73,2.73,0,0,0,4.68,1.92Z" transform="translate(0.75 1.63)"/><path class="cls-65" d="M4.65,1.92A2.63,2.63,0,0,0,2-.76,2.71,2.71,0,0,0-.55,2,2.63,2.63,0,0,0,2.08,4.73,2.72,2.72,0,0,0,4.65,1.92Z" transform="translate(0.75 1.63)"/><path class="cls-65" d="M4.62,1.92A2.61,2.61,0,0,0,2-.76,2.71,2.71,0,0,0-.53,2a2.63,2.63,0,0,0,2.6,2.68A2.71,2.71,0,0,0,4.62,1.92Z" transform="translate(0.75 1.63)"/><path class="cls-65" d="M4.59,1.91A2.6,2.6,0,0,0,2-.76,2.68,2.68,0,0,0-.5,2,2.61,2.61,0,0,0,2.07,4.71,2.69,2.69,0,0,0,4.59,1.91Z" transform="translate(0.75 1.63)"/><path class="cls-65" d="M4.56,1.91A2.59,2.59,0,0,0,2-.76,2.67,2.67,0,0,0-.48,2,2.59,2.59,0,0,0,2.07,4.7,2.67,2.67,0,0,0,4.56,1.91Z" transform="translate(0.75 1.63)"/><path class="cls-65" d="M4.53,1.91A2.58,2.58,0,0,0,2-.76,2.66,2.66,0,0,0-.45,2,2.58,2.58,0,0,0,2.06,4.7,2.67,2.67,0,0,0,4.53,1.91Z" transform="translate(0.75 1.63)"/><path class="cls-65" d="M4.49,1.91A2.55,2.55,0,0,0,2-.76,2.65,2.65,0,0,0-.43,2,2.57,2.57,0,0,0,2.06,4.69,2.64,2.64,0,0,0,4.49,1.91Z" transform="translate(0.75 1.63)"/><path class="cls-65" d="M4.46,1.9A2.54,2.54,0,0,0,2-.76,2.62,2.62,0,0,0-.4,2,2.55,2.55,0,0,0,2.06,4.68,2.62,2.62,0,0,0,4.46,1.9Z" transform="translate(0.75 1.63)"/><path class="cls-65" d="M4.43,1.9A2.53,2.53,0,0,0,2-.76,2.62,2.62,0,0,0-.38,2,2.54,2.54,0,0,0,2.05,4.67,2.61,2.61,0,0,0,4.43,1.9Z" transform="translate(0.75 1.63)"/><path class="cls-65" d="M4.4,1.9A2.52,2.52,0,0,0,2-.76,2.6,2.6,0,0,0-.35,2a2.52,2.52,0,0,0,2.4,2.66A2.61,2.61,0,0,0,4.4,1.9Z" transform="translate(0.75 1.63)"/><path class="cls-65" d="M4.37,1.89A2.51,2.51,0,0,0,2-.76,2.6,2.6,0,0,0-.33,2,2.52,2.52,0,0,0,2.05,4.66,2.6,2.6,0,0,0,4.37,1.89Z" transform="translate(0.75 1.63)"/><path class="cls-65" d="M4.34,1.89A2.5,2.5,0,0,0,2-.76,2.57,2.57,0,0,0-.3,2,2.49,2.49,0,0,0,2.05,4.65,2.58,2.58,0,0,0,4.34,1.89Z" transform="translate(0.75 1.63)"/><path class="cls-65" d="M4.31,1.89A2.49,2.49,0,0,0,2-.76,2.56,2.56,0,0,0-.28,2,2.49,2.49,0,0,0,2,4.64,2.56,2.56,0,0,0,4.31,1.89Z" transform="translate(0.75 1.63)"/><path class="cls-66" d="M4.27,1.88A2.46,2.46,0,0,0,2-.76,2.54,2.54,0,0,0-.25,2,2.47,2.47,0,0,0,2,4.64,2.55,2.55,0,0,0,4.27,1.88Z" transform="translate(0.75 1.63)"/><path class="cls-66" d="M4.24,1.88A2.45,2.45,0,0,0,2-.76,2.55,2.55,0,0,0-.23,2,2.47,2.47,0,0,0,2,4.63,2.53,2.53,0,0,0,4.24,1.88Z" transform="translate(0.75 1.63)"/><path class="cls-66" d="M4.21,1.88A2.44,2.44,0,0,0,2-.76,2.52,2.52,0,0,0-.2,2,2.44,2.44,0,0,0,2,4.62,2.52,2.52,0,0,0,4.21,1.88Z" transform="translate(0.75 1.63)"/><path class="cls-66" d="M4.18,1.88A2.43,2.43,0,0,0,2-.76,2.52,2.52,0,0,0-.18,2,2.44,2.44,0,0,0,2,4.61,2.5,2.5,0,0,0,4.18,1.88Z" transform="translate(0.75 1.63)"/><path class="cls-66" d="M4.15,1.87A2.42,2.42,0,0,0,2-.76,2.49,2.49,0,0,0-.15,2,2.43,2.43,0,0,0,2,4.61,2.51,2.51,0,0,0,4.15,1.87Z" transform="translate(0.75 1.63)"/><path class="cls-66" d="M4.12,1.87A2.42,2.42,0,0,0,2-.76,2.5,2.5,0,0,0-.13,2,2.42,2.42,0,0,0,2,4.6,2.5,2.5,0,0,0,4.12,1.87Z" transform="translate(0.75 1.63)"/><path class="cls-66" d="M4.09,1.87A2.41,2.41,0,0,0,2-.76,2.48,2.48,0,0,0-.1,2,2.39,2.39,0,0,0,2,4.59,2.48,2.48,0,0,0,4.09,1.87Z" transform="translate(0.75 1.63)"/><path class="cls-67" d="M4.09,1.87A2.41,2.41,0,0,0,2-.75,2.48,2.48,0,0,0-.1,2,2.38,2.38,0,0,0,2,4.58,2.47,2.47,0,0,0,4.09,1.87Z" transform="translate(0.75 1.63)"/><path class="cls-68" d="M4.09,1.87A2.39,2.39,0,0,0,2-.73,2.46,2.46,0,0,0-.1,2,2.38,2.38,0,0,0,2,4.57,2.46,2.46,0,0,0,4.09,1.87Z" transform="translate(0.75 1.63)"/><path class="cls-69" d="M4.09,1.88A2.38,2.38,0,0,0,2-.71,2.44,2.44,0,0,0-.1,2,2.37,2.37,0,0,0,2,4.56,2.45,2.45,0,0,0,4.09,1.88Z" transform="translate(0.75 1.63)"/><path class="cls-70" d="M4.09,1.88A2.38,2.38,0,0,0,2-.7,2.45,2.45,0,0,0-.1,2,2.35,2.35,0,0,0,2,4.55,2.44,2.44,0,0,0,4.09,1.88Z" transform="translate(0.75 1.63)"/><path class="cls-71" d="M4.09,1.88A2.36,2.36,0,0,0,2-.68,2.42,2.42,0,0,0-.1,2,2.35,2.35,0,0,0,2,4.54,2.44,2.44,0,0,0,4.09,1.88Z" transform="translate(0.75 1.63)"/><path class="cls-72" d="M4.09,1.88A2.37,2.37,0,0,0,2-.67,2.42,2.42,0,0,0-.1,2,2.34,2.34,0,0,0,2,4.53,2.43,2.43,0,0,0,4.09,1.88Z" transform="translate(0.75 1.63)"/><path class="cls-73" d="M4.09,1.89A2.35,2.35,0,0,0,2-.65,2.4,2.4,0,0,0-.1,2,2.34,2.34,0,0,0,2,4.52,2.42,2.42,0,0,0,4.09,1.89Z" transform="translate(0.75 1.63)"/><path class="cls-74" d="M4.09,1.89A2.35,2.35,0,0,0,2-.64,2.41,2.41,0,0,0-.1,2,2.32,2.32,0,0,0,2,4.51,2.41,2.41,0,0,0,4.09,1.89Z" transform="translate(0.75 1.63)"/><path class="cls-75" d="M4.09,1.89A2.33,2.33,0,0,0,2-.62,2.39,2.39,0,0,0-.1,2,2.32,2.32,0,0,0,2,4.5,2.4,2.4,0,0,0,4.09,1.89Z" transform="translate(0.75 1.63)"/><path class="cls-76" d="M4.09,1.89A2.34,2.34,0,0,0,2-.61,2.39,2.39,0,0,0-.1,2,2.31,2.31,0,0,0,2,4.49,2.4,2.4,0,0,0,4.09,1.89Z" transform="translate(0.75 1.63)"/><path class="cls-77" d="M4.09,1.9A2.32,2.32,0,0,0,2-.59,2.38,2.38,0,0,0-.1,2,2.3,2.3,0,0,0,2,4.48,2.38,2.38,0,0,0,4.09,1.9Z" transform="translate(0.75 1.63)"/><path class="cls-78" d="M4.09,1.9A2.31,2.31,0,0,0,2-.57,2.36,2.36,0,0,0-.1,2,2.29,2.29,0,0,0,2,4.47,2.38,2.38,0,0,0,4.09,1.9Z" transform="translate(0.75 1.63)"/><path class="cls-79" d="M4.09,1.9A2.3,2.3,0,0,0,2-.56,2.36,2.36,0,0,0-.1,2,2.28,2.28,0,0,0,2,4.46,2.37,2.37,0,0,0,4.09,1.9Z" transform="translate(0.75 1.63)"/><path class="cls-80" d="M4.09,1.91A2.29,2.29,0,0,0,2-.54,2.34,2.34,0,0,0-.1,2,2.28,2.28,0,0,0,2,4.45,2.36,2.36,0,0,0,4.09,1.91Z" transform="translate(0.75 1.63)"/><path class="cls-81" d="M4.09,1.91A2.3,2.3,0,0,0,2-.53,2.35,2.35,0,0,0-.1,2,2.27,2.27,0,0,0,2,4.44,2.35,2.35,0,0,0,4.09,1.91Z" transform="translate(0.75 1.63)"/><path class="cls-82" d="M4.09,1.91A2.28,2.28,0,0,0,2-.51,2.33,2.33,0,0,0-.1,2,2.27,2.27,0,0,0,2,4.43,2.34,2.34,0,0,0,4.09,1.91Z" transform="translate(0.75 1.63)"/><path class="cls-83" d="M4.09,1.91A2.28,2.28,0,0,0,2-.5,2.33,2.33,0,0,0-.1,2,2.26,2.26,0,0,0,2,4.42,2.34,2.34,0,0,0,4.09,1.91Z" transform="translate(0.75 1.63)"/><path class="cls-84" d="M4.09,1.92A2.27,2.27,0,0,0,2-.48,2.32,2.32,0,0,0-.1,2,2.25,2.25,0,0,0,2,4.41,2.33,2.33,0,0,0,4.09,1.92Z" transform="translate(0.75 1.63)"/><path class="cls-85" d="M4.09,1.92A2.27,2.27,0,0,0,2-.47,2.32,2.32,0,0,0-.1,2,2.24,2.24,0,0,0,2,4.4,2.32,2.32,0,0,0,4.09,1.92Z" transform="translate(0.75 1.63)"/><path class="cls-86" d="M4.09,1.92A2.25,2.25,0,0,0,2-.45,2.31,2.31,0,0,0-.1,2,2.23,2.23,0,0,0,2,4.39,2.31,2.31,0,0,0,4.09,1.92Z" transform="translate(0.75 1.63)"/><path class="cls-87" d="M4.09,1.93A2.24,2.24,0,0,0,2-.43,2.29,2.29,0,0,0-.1,2,2.23,2.23,0,0,0,2,4.38,2.3,2.3,0,0,0,4.09,1.93Z" transform="translate(0.75 1.63)"/><path class="cls-88" d="M4.09,1.93A2.24,2.24,0,0,0,2-.42,2.3,2.3,0,0,0-.1,2,2.22,2.22,0,0,0,2,4.37,2.3,2.3,0,0,0,4.09,1.93Z" transform="translate(0.75 1.63)"/><path class="cls-89" d="M4.09,1.93A2.22,2.22,0,0,0,2-.4,2.28,2.28,0,0,0-.1,2,2.21,2.21,0,0,0,2,4.36,2.29,2.29,0,0,0,4.09,1.93Z" transform="translate(0.75 1.63)"/><path class="cls-90" d="M4.09,1.93A2.22,2.22,0,0,0,2-.39,2.28,2.28,0,0,0-.1,2,2.2,2.2,0,0,0,2,4.35,2.28,2.28,0,0,0,4.09,1.93Z" transform="translate(0.75 1.63)"/><path class="cls-91" d="M4.09,1.94A2.21,2.21,0,0,0,2-.37,2.27,2.27,0,0,0-.1,2,2.19,2.19,0,0,0,2,4.34,2.27,2.27,0,0,0,4.09,1.94Z" transform="translate(0.75 1.63)"/><path class="cls-92" d="M4.09,1.94A2.21,2.21,0,0,0,2-.36,2.27,2.27,0,0,0-.1,2,2.19,2.19,0,0,0,2,4.33,2.27,2.27,0,0,0,4.09,1.94Z" transform="translate(0.75 1.63)"/><path class="cls-93" d="M4.09,1.94A2.19,2.19,0,0,0,2-.35,2.27,2.27,0,0,0-.1,2,2.2,2.2,0,0,0,2,4.33,2.27,2.27,0,0,0,4.09,1.94Z" transform="translate(0.75 1.63)"/><path class="cls-94" d="M4.09,1.94A2.18,2.18,0,0,0,2-.34,2.26,2.26,0,0,0-.09,2,2.19,2.19,0,0,0,2,4.32,2.25,2.25,0,0,0,4.09,1.94Z" transform="translate(0.75 1.63)"/><path class="cls-95" d="M4.1,1.94A2.18,2.18,0,0,0,2-.33,2.25,2.25,0,0,0-.09,2,2.18,2.18,0,0,0,2,4.31,2.25,2.25,0,0,0,4.1,1.94Z" transform="translate(0.75 1.63)"/><path class="cls-96" d="M4.1,1.94A2.18,2.18,0,0,0,2-.33,2.25,2.25,0,0,0-.08,2,2.17,2.17,0,0,0,2,4.3,2.23,2.23,0,0,0,4.1,1.94Z" transform="translate(0.75 1.63)"/><path class="cls-97" d="M4.11,1.94A2.17,2.17,0,0,0,2-.32,2.24,2.24,0,0,0-.07,2,2.17,2.17,0,0,0,2,4.3,2.26,2.26,0,0,0,4.11,1.94Z" transform="translate(0.75 1.63)"/><path class="cls-98" d="M4.11,1.94A2.16,2.16,0,0,0,2-.31,2.24,2.24,0,0,0-.07,2,2.16,2.16,0,0,0,2,4.29,2.24,2.24,0,0,0,4.11,1.94Z" transform="translate(0.75 1.63)"/><path class="cls-99" d="M4.11,1.94A2.16,2.16,0,0,0,2-.31,2.23,2.23,0,0,0-.06,2,2.15,2.15,0,0,0,2.05,4.28,2.22,2.22,0,0,0,4.11,1.94Z" transform="translate(0.75 1.63)"/><path class="cls-100" d="M4.12,1.94A2.16,2.16,0,0,0,2-.3,2.23,2.23,0,0,0-.06,2,2.15,2.15,0,0,0,2.05,4.27,2.22,2.22,0,0,0,4.12,1.94Z" transform="translate(0.75 1.63)"/><path class="cls-101" d="M4.12,1.94A2.15,2.15,0,0,0,2-.29,2.22,2.22,0,0,0,0,2,2.15,2.15,0,0,0,2.06,4.27,2.22,2.22,0,0,0,4.12,1.94Z" transform="translate(0.75 1.63)"/><path class="cls-102" d="M4.13,1.94A2.15,2.15,0,0,0,2-.28,2.21,2.21,0,0,0,0,2,2.16,2.16,0,0,0,2.06,4.26,2.23,2.23,0,0,0,4.13,1.94Z" transform="translate(0.75 1.63)"/><path class="cls-103" d="M4.13,1.94A2.16,2.16,0,0,0,2-.28,2.23,2.23,0,0,0,0,2,2.13,2.13,0,0,0,2.07,4.25,2.21,2.21,0,0,0,4.13,1.94Z" transform="translate(0.75 1.63)"/><path class="cls-104" d="M4.13,1.94A2.13,2.13,0,0,0,2-.27,2.22,2.22,0,0,0,0,2,2.16,2.16,0,0,0,2.07,4.25,2.21,2.21,0,0,0,4.13,1.94Z" transform="translate(0.75 1.63)"/><path class="cls-105" d="M4.14,1.94A2.14,2.14,0,0,0,2-.26,2.2,2.2,0,0,0,0,2a2.14,2.14,0,0,0,2.11,2.2A2.21,2.21,0,0,0,4.14,1.94Z" transform="translate(0.75 1.63)"/><path class="cls-106" d="M4.14,1.94A2.14,2.14,0,0,0,2-.26,2.21,2.21,0,0,0,0,2,2.14,2.14,0,0,0,2.08,4.23,2.2,2.2,0,0,0,4.14,1.94Z" transform="translate(0.75 1.63)"/><path class="cls-107" d="M4.15,1.94A2.14,2.14,0,0,0,2-.25,2.2,2.2,0,0,0,0,2,2.12,2.12,0,0,0,2.09,4.22,2.19,2.19,0,0,0,4.15,1.94Z" transform="translate(0.75 1.63)"/><path class="cls-108" d="M4.15,1.94A2.12,2.12,0,0,0,2.05-.24,2.19,2.19,0,0,0,0,2,2.14,2.14,0,0,0,2.09,4.22,2.2,2.2,0,0,0,4.15,1.94Z" transform="translate(0.75 1.63)"/><path class="cls-109" d="M4.15,1.94A2.11,2.11,0,0,0,2.05-.23,2.19,2.19,0,0,0,0,2a2.12,2.12,0,0,0,2.1,2.17A2.19,2.19,0,0,0,4.15,1.94Z" transform="translate(0.75 1.63)"/><path class="cls-110" d="M4.16,1.94A2.13,2.13,0,0,0,2.05-.23,2.18,2.18,0,0,0,0,2,2.11,2.11,0,0,0,2.1,4.2,2.19,2.19,0,0,0,4.16,1.94Z" transform="translate(0.75 1.63)"/><path class="cls-111" d="M4.16,1.94A2.11,2.11,0,0,0,2.06-.22,2.19,2.19,0,0,0,0,2,2.11,2.11,0,0,0,2.1,4.19,2.17,2.17,0,0,0,4.16,1.94Z" transform="translate(0.75 1.63)"/><path class="cls-112" d="M4.17,1.94A2.11,2.11,0,0,0,2.06-.21,2.16,2.16,0,0,0,0,2a2.11,2.11,0,0,0,2.1,2.16A2.19,2.19,0,0,0,4.17,1.94Z" transform="translate(0.75 1.63)"/><path class="cls-113" d="M4.17,1.94A2.11,2.11,0,0,0,2.07-.21,2.18,2.18,0,0,0,0,2a2.1,2.1,0,0,0,2.1,2.15A2.18,2.18,0,0,0,4.17,1.94Z" transform="translate(0.75 1.63)"/><path class="cls-114" d="M4.17,1.94A2.1,2.1,0,0,0,2.07-.2,2.17,2.17,0,0,0,0,2a2.1,2.1,0,0,0,2.1,2.14A2.16,2.16,0,0,0,4.17,1.94Z" transform="translate(0.75 1.63)"/><path class="cls-115" d="M4.18,1.94A2.09,2.09,0,0,0,2.08-.19,2.16,2.16,0,0,0,0,2a2.09,2.09,0,0,0,2.1,2.13A2.16,2.16,0,0,0,4.18,1.94Z" transform="translate(0.75 1.63)"/><path class="cls-116" d="M4.18,1.94A2.09,2.09,0,0,0,2.08-.18,2.16,2.16,0,0,0,0,2a2.1,2.1,0,0,0,2.1,2.13A2.16,2.16,0,0,0,4.18,1.94Z" transform="translate(0.75 1.63)"/><path class="cls-117" d="M4.19,1.94A2.1,2.1,0,0,0,2.09-.18,2.16,2.16,0,0,0,0,2a2.09,2.09,0,0,0,2.1,2.12A2.16,2.16,0,0,0,4.19,1.94Z" transform="translate(0.75 1.63)"/><path class="cls-118" d="M4.19,1.94A2.08,2.08,0,0,0,2.09-.17,2.15,2.15,0,0,0,0,2a2.08,2.08,0,0,0,2.1,2.11A2.15,2.15,0,0,0,4.19,1.94Z" transform="translate(0.75 1.63)"/><path class="cls-119" d="M4.19,1.93A2.07,2.07,0,0,0,2.09-.15,2.13,2.13,0,0,0,0,2,2.06,2.06,0,0,0,2.13,4.11,2.14,2.14,0,0,0,4.19,1.93Z" transform="translate(0.75 1.63)"/><path class="cls-120" d="M4.18,1.93A2.07,2.07,0,0,0,2.09-.14,2.14,2.14,0,0,0,0,2,2.05,2.05,0,0,0,2.13,4.08,2.11,2.11,0,0,0,4.18,1.93Z" transform="translate(0.75 1.63)"/><path class="cls-121" d="M4.18,1.92a2.05,2.05,0,0,0-2.09-2A2.12,2.12,0,0,0,0,2a2.05,2.05,0,0,0,2.09,2A2.12,2.12,0,0,0,4.18,1.92Z" transform="translate(0.75 1.63)"/><path class="cls-122" d="M4.17,1.91a2,2,0,0,0-2.08-2A2.1,2.1,0,0,0,0,2,2,2,0,0,0,2.13,4,2.1,2.1,0,0,0,4.17,1.91Z" transform="translate(0.75 1.63)"/><path class="cls-123" d="M4.17,1.91a2,2,0,0,0-2.08-2A2.09,2.09,0,0,0,0,2,2,2,0,0,0,2.13,4,2.09,2.09,0,0,0,4.17,1.91Z" transform="translate(0.75 1.63)"/><path class="cls-124" d="M4.17,1.9a2,2,0,0,0-2.08-2A2.09,2.09,0,0,0,0,2,2,2,0,0,0,2.13,4,2.08,2.08,0,0,0,4.17,1.9Z" transform="translate(0.75 1.63)"/><path class="cls-125" d="M4.16,1.9A2,2,0,0,0,2.08,0a2.05,2.05,0,0,0-2,2,2,2,0,0,0,2.07,2A2.06,2.06,0,0,0,4.16,1.9Z" transform="translate(0.75 1.63)"/><path class="cls-126" d="M4.16,1.89A2,2,0,0,0,2.08,0a2,2,0,0,0-2,2A2,2,0,0,0,2.12,3.91,2.05,2.05,0,0,0,4.16,1.89Z" transform="translate(0.75 1.63)"/><path class="cls-127" d="M4.15,1.89A2,2,0,0,0,2.08,0a2,2,0,0,0-2,2,2,2,0,0,0,2.07,1.9A2,2,0,0,0,4.15,1.89Z" transform="translate(0.75 1.63)"/><path class="cls-128" d="M4.15,1.88A2,2,0,0,0,2.08,0a2,2,0,0,0-2,2A2,2,0,0,0,2.12,3.85,2,2,0,0,0,4.15,1.88Z" transform="translate(0.75 1.63)"/><path class="cls-129" d="M4.15,1.88A2,2,0,0,0,2.08,0a2,2,0,0,0-2,2A2,2,0,0,0,2.12,3.82,2,2,0,0,0,4.15,1.88Z" transform="translate(0.75 1.63)"/><path class="cls-130" d="M4.14,1.87A1.93,1.93,0,0,0,2.08,0,2,2,0,0,0,.05,2,2,2,0,0,0,2.12,3.8,2,2,0,0,0,4.14,1.87Z" transform="translate(0.75 1.63)"/><path class="cls-131" d="M4.14,1.86A1.92,1.92,0,0,0,2.08.06,2,2,0,0,0,.05,2,1.93,1.93,0,0,0,2.11,3.77,2,2,0,0,0,4.14,1.86Z" transform="translate(0.75 1.63)"/><path class="cls-132" d="M4.13,1.86A1.92,1.92,0,0,0,2.07.07,2,2,0,0,0,.05,2,1.92,1.92,0,0,0,2.11,3.74,2,2,0,0,0,4.13,1.86Z" transform="translate(0.75 1.63)"/><path class="cls-133" d="M4.13,1.85A1.91,1.91,0,0,0,2.07.09,2,2,0,0,0,.05,2,1.91,1.91,0,0,0,2.11,3.71,2,2,0,0,0,4.13,1.85Z" transform="translate(0.75 1.63)"/><path class="cls-134" d="M4.13,1.85A1.89,1.89,0,0,0,2.07.11a2,2,0,0,0-2,1.83A1.89,1.89,0,0,0,2.11,3.68,2,2,0,0,0,4.13,1.85Z" transform="translate(0.75 1.63)"/><path class="cls-135" d="M4.12,1.84A1.88,1.88,0,0,0,2.07.13a1.93,1.93,0,0,0-2,1.81A1.87,1.87,0,0,0,2.11,3.65,2,2,0,0,0,4.12,1.84Z" transform="translate(0.75 1.63)"/><path class="cls-136" d="M4.12,1.84A1.89,1.89,0,0,0,2.07.14a1.94,1.94,0,0,0-2,1.79,1.86,1.86,0,0,0,2,1.69A1.92,1.92,0,0,0,4.12,1.84Z" transform="translate(0.75 1.63)"/><path class="cls-137" d="M4.11,1.83a1.86,1.86,0,0,0-2-1.67,1.93,1.93,0,0,0-2,1.76,1.85,1.85,0,0,0,2,1.67A1.91,1.91,0,0,0,4.11,1.83Z" transform="translate(0.75 1.63)"/><path class="cls-138" d="M4.11,1.82a1.85,1.85,0,0,0-2-1.64,1.91,1.91,0,0,0-2,1.74,1.85,1.85,0,0,0,2,1.64A1.9,1.9,0,0,0,4.11,1.82Z" transform="translate(0.75 1.63)"/><path class="cls-139" d="M4.11,1.82A1.84,1.84,0,0,0,2.07.2a1.9,1.9,0,0,0-2,1.71,1.85,1.85,0,0,0,2,1.63A1.92,1.92,0,0,0,4.11,1.82Z" transform="translate(0.75 1.63)"/><path class="cls-140" d="M4.1,1.81a1.84,1.84,0,0,0-2-1.6,1.9,1.9,0,0,0-2,1.7,1.84,1.84,0,0,0,2,1.6A1.9,1.9,0,0,0,4.1,1.81Z" transform="translate(0.75 1.63)"/><path class="cls-141" d="M4.1,1.81a1.83,1.83,0,0,0-2-1.58,1.89,1.89,0,0,0-2,1.67,1.83,1.83,0,0,0,2,1.58A1.89,1.89,0,0,0,4.1,1.81Z" transform="translate(0.75 1.63)"/><path class="cls-142" d="M4.09,1.8a1.81,1.81,0,0,0-2-1.55,1.88,1.88,0,0,0-2,1.65,1.82,1.82,0,0,0,2,1.55A1.87,1.87,0,0,0,4.09,1.8Z" transform="translate(0.75 1.63)"/><path class="cls-143" d="M4.09,1.8a1.81,1.81,0,0,0-2-1.53,1.86,1.86,0,0,0-2,1.62,1.81,1.81,0,0,0,2,1.53A1.87,1.87,0,0,0,4.09,1.8Z" transform="translate(0.75 1.63)"/><path class="cls-144" d="M4.09,1.79a1.81,1.81,0,0,0-2-1.51,1.88,1.88,0,0,0-2,1.6,1.8,1.8,0,0,0,2,1.51A1.87,1.87,0,0,0,4.09,1.79Z" transform="translate(0.75 1.63)"/><path class="cls-144" d="M4.09,1.79a1.81,1.81,0,0,0-2-1.51,1.88,1.88,0,0,0-2,1.6,1.8,1.8,0,0,0,2,1.51A1.87,1.87,0,0,0,4.09,1.79Z" transform="translate(0.75 1.63)"/><path class="cls-144" d="M4.09,1.79a1.81,1.81,0,0,0-2-1.51,1.88,1.88,0,0,0-2,1.6,1.8,1.8,0,0,0,2,1.51A1.87,1.87,0,0,0,4.09,1.79Z" transform="translate(0.75 1.63)"/><path class="cls-144" d="M4.09,1.79a1.81,1.81,0,0,0-2-1.51,1.88,1.88,0,0,0-2,1.6,1.8,1.8,0,0,0,2,1.51A1.87,1.87,0,0,0,4.09,1.79Z" transform="translate(0.75 1.63)"/><path class="cls-144" d="M4.09,1.79a1.81,1.81,0,0,0-2-1.51,1.88,1.88,0,0,0-2,1.6,1.8,1.8,0,0,0,2,1.51A1.87,1.87,0,0,0,4.09,1.79Z" transform="translate(0.75 1.63)"/><path class="cls-144" d="M4.09,1.79a1.81,1.81,0,0,0-2-1.51,1.88,1.88,0,0,0-2,1.6,1.8,1.8,0,0,0,2,1.51A1.87,1.87,0,0,0,4.09,1.79Z" transform="translate(0.75 1.63)"/><path class="cls-144" d="M4.09,1.79a1.81,1.81,0,0,0-2-1.51,1.88,1.88,0,0,0-2,1.6,1.8,1.8,0,0,0,2,1.51A1.87,1.87,0,0,0,4.09,1.79Z" transform="translate(0.75 1.63)"/><path class="cls-144" d="M4.09,1.79a1.81,1.81,0,0,0-2-1.51,1.88,1.88,0,0,0-2,1.6,1.8,1.8,0,0,0,2,1.51A1.87,1.87,0,0,0,4.09,1.79Z" transform="translate(0.75 1.63)"/><path class="cls-144" d="M4.09,1.79a1.81,1.81,0,0,0-2-1.51,1.88,1.88,0,0,0-2,1.6,1.8,1.8,0,0,0,2,1.51A1.87,1.87,0,0,0,4.09,1.79Z" transform="translate(0.75 1.63)"/><path class="cls-144" d="M4.09,1.79a1.81,1.81,0,0,0-2-1.51,1.88,1.88,0,0,0-2,1.6,1.8,1.8,0,0,0,2,1.51A1.87,1.87,0,0,0,4.09,1.79Z" transform="translate(0.75 1.63)"/><path class="cls-144" d="M4.09,1.79a1.81,1.81,0,0,0-2-1.51,1.88,1.88,0,0,0-2,1.6,1.8,1.8,0,0,0,2,1.51A1.87,1.87,0,0,0,4.09,1.79Z" transform="translate(0.75 1.63)"/><path class="cls-144" d="M4.09,1.79a1.81,1.81,0,0,0-2-1.51,1.88,1.88,0,0,0-2,1.6,1.8,1.8,0,0,0,2,1.51A1.87,1.87,0,0,0,4.09,1.79Z" transform="translate(0.75 1.63)"/><path class="cls-144" d="M4.09,1.79a1.81,1.81,0,0,0-2-1.51,1.88,1.88,0,0,0-2,1.6,1.8,1.8,0,0,0,2,1.51A1.87,1.87,0,0,0,4.09,1.79Z" transform="translate(0.75 1.63)"/><path class="cls-144" d="M4.09,1.79a1.81,1.81,0,0,0-2-1.51,1.88,1.88,0,0,0-2,1.6,1.8,1.8,0,0,0,2,1.51A1.87,1.87,0,0,0,4.09,1.79Z" transform="translate(0.75 1.63)"/><path class="cls-144" d="M4.09,1.79a1.81,1.81,0,0,0-2-1.51,1.88,1.88,0,0,0-2,1.6,1.8,1.8,0,0,0,2,1.51A1.87,1.87,0,0,0,4.09,1.79Z" transform="translate(0.75 1.63)"/><path class="cls-144" d="M4.09,1.79a1.81,1.81,0,0,0-2-1.51,1.88,1.88,0,0,0-2,1.6,1.8,1.8,0,0,0,2,1.51A1.87,1.87,0,0,0,4.09,1.79Z" transform="translate(0.75 1.63)"/><path class="cls-144" d="M4.09,1.79a1.81,1.81,0,0,0-2-1.51,1.88,1.88,0,0,0-2,1.6,1.8,1.8,0,0,0,2,1.51A1.87,1.87,0,0,0,4.09,1.79Z" transform="translate(0.75 1.63)"/><path class="cls-144" d="M4.09,1.79a1.81,1.81,0,0,0-2-1.51,1.88,1.88,0,0,0-2,1.6,1.8,1.8,0,0,0,2,1.51A1.87,1.87,0,0,0,4.09,1.79Z" transform="translate(0.75 1.63)"/><path class="cls-144" d="M4.09,1.79a1.81,1.81,0,0,0-2-1.51,1.88,1.88,0,0,0-2,1.6,1.8,1.8,0,0,0,2,1.51A1.87,1.87,0,0,0,4.09,1.79Z" transform="translate(0.75 1.63)"/><path class="cls-144" d="M4.09,1.79a1.81,1.81,0,0,0-2-1.51,1.88,1.88,0,0,0-2,1.6,1.8,1.8,0,0,0,2,1.51A1.87,1.87,0,0,0,4.09,1.79Z" transform="translate(0.75 1.63)"/><path class="cls-144" d="M4.09,1.79a1.81,1.81,0,0,0-2-1.51,1.88,1.88,0,0,0-2,1.6,1.8,1.8,0,0,0,2,1.51A1.87,1.87,0,0,0,4.09,1.79Z" transform="translate(0.75 1.63)"/><path class="cls-144" d="M4.09,1.79a1.81,1.81,0,0,0-2-1.51,1.88,1.88,0,0,0-2,1.6,1.8,1.8,0,0,0,2,1.51A1.87,1.87,0,0,0,4.09,1.79Z" transform="translate(0.75 1.63)"/><path class="cls-144" d="M4.09,1.79a1.81,1.81,0,0,0-2-1.51,1.88,1.88,0,0,0-2,1.6,1.8,1.8,0,0,0,2,1.51A1.87,1.87,0,0,0,4.09,1.79Z" transform="translate(0.75 1.63)"/><path class="cls-144" d="M4.09,1.79a1.81,1.81,0,0,0-2-1.51,1.88,1.88,0,0,0-2,1.6,1.8,1.8,0,0,0,2,1.51A1.87,1.87,0,0,0,4.09,1.79Z" transform="translate(0.75 1.63)"/><path class="cls-144" d="M4.09,1.79a1.81,1.81,0,0,0-2-1.51,1.88,1.88,0,0,0-2,1.6,1.8,1.8,0,0,0,2,1.51A1.87,1.87,0,0,0,4.09,1.79Z" transform="translate(0.75 1.63)"/><path class="cls-144" d="M4.09,1.79a1.81,1.81,0,0,0-2-1.51,1.88,1.88,0,0,0-2,1.6,1.8,1.8,0,0,0,2,1.51A1.87,1.87,0,0,0,4.09,1.79Z" transform="translate(0.75 1.63)"/><path class="cls-144" d="M4.09,1.79a1.81,1.81,0,0,0-2-1.51,1.88,1.88,0,0,0-2,1.6,1.8,1.8,0,0,0,2,1.51A1.87,1.87,0,0,0,4.09,1.79Z" transform="translate(0.75 1.63)"/><path class="cls-145" d="M4.06,1.79a1.79,1.79,0,0,0-2-1.5,1.83,1.83,0,0,0-2,1.57,1.79,1.79,0,0,0,2,1.5A1.83,1.83,0,0,0,4.06,1.79Z" transform="translate(0.75 1.63)"/><path class="cls-146" d="M4,1.8a1.78,1.78,0,0,0-2-1.5,1.8,1.8,0,0,0-2,1.53,1.78,1.78,0,0,0,2,1.49A1.8,1.8,0,0,0,4,1.8Z" transform="translate(0.75 1.63)"/><path class="cls-147" d="M4,1.8A1.76,1.76,0,0,0,2.07.31a1.77,1.77,0,0,0-2,1.49c0,.82.87,1.49,2,1.49A1.78,1.78,0,0,0,4,1.8Z" transform="translate(0.75 1.63)"/><path class="cls-148" d="M4,1.8A1.76,1.76,0,0,0,2.07.32C1,.31.12,1,.12,1.77A1.76,1.76,0,0,0,2.05,3.25,1.75,1.75,0,0,0,4,1.8Z" transform="translate(0.75 1.63)"/><path class="cls-149" d="M4,1.8A1.75,1.75,0,0,0,2.07.33C1,.31.14.94.13,1.74A1.76,1.76,0,0,0,2,3.22C3.1,3.23,4,2.6,4,1.8Z" transform="translate(0.75 1.63)"/><path class="cls-150" d="M4,1.8C4,1,3.12.36,2.07.33S.16.93.15,1.71,1,3.16,2,3.18A1.71,1.71,0,0,0,4,1.8Z" transform="translate(0.75 1.63)"/><path class="cls-151" d="M3.93,1.81C4,1,3.12.37,2.07.34S.18.91.16,1.68,1,3.12,2,3.15,3.92,2.58,3.93,1.81Z" transform="translate(0.75 1.63)"/><path class="cls-152" d="M3.91,1.81C3.93,1,3.11.39,2.08.35S.19.89.18,1.66,1,3.07,2,3.11,3.89,2.57,3.91,1.81Z" transform="translate(0.75 1.63)"/><path class="cls-153" d="M3.89,1.81c0-.75-.79-1.4-1.81-1.45S.21.88.19,1.63,1,3,2,3.08,3.87,2.56,3.89,1.81Z" transform="translate(0.75 1.63)"/><path class="cls-154" d="M3.87,1.81c0-.74-.78-1.39-1.79-1.44S.23.86.2,1.6,1,3,2,3.05,3.84,2.55,3.87,1.81Z" transform="translate(0.75 1.63)"/><path class="cls-155" d="M3.85,1.81c0-.72-.77-1.37-1.77-1.44S.25.84.22,1.57,1,2.94,2,3,3.82,2.54,3.85,1.81Z" transform="translate(0.75 1.63)"/><path class="cls-156" d="M3.82,1.82C3.86,1.1,3.08.46,2.08.38S.26.82.23,1.54,1,2.9,2,3,3.79,2.53,3.82,1.82Z" transform="translate(0.75 1.63)"/><path class="cls-157" d="M3.8,1.82c0-.71-.73-1.35-1.71-1.43S.28.81.25,1.51,1,2.86,2,2.94,3.77,2.52,3.8,1.82Z" transform="translate(0.75 1.63)"/><path class="cls-158" d="M3.78,1.82C3.82,1.13,3.06.49,2.09.4S.3.79.26,1.48,1,2.81,2,2.91,3.74,2.51,3.78,1.82Z" transform="translate(0.75 1.63)"/><path class="cls-159" d="M3.76,1.82C3.8,1.14,3.05.51,2.09.41S.31.77.27,1.46,1,2.77,1.94,2.87,3.72,2.5,3.76,1.82Z" transform="translate(0.75 1.63)"/><path class="cls-160" d="M3.74,1.83c0-.67-.69-1.31-1.65-1.42S.33.76.29,1.43,1,2.73,1.93,2.84,3.69,2.5,3.74,1.83Z" transform="translate(0.75 1.63)"/><path class="cls-161" d="M3.72,1.83C3.76,1.17,3,.54,2.1.42S.35.74.3,1.4,1,2.69,1.92,2.8,3.67,2.49,3.72,1.83Z" transform="translate(0.75 1.63)"/><path class="cls-162" d="M3.69,1.83C3.75,1.18,3,.56,2.1.43S.37.72.32,1.37,1,2.64,1.91,2.77,3.64,2.48,3.69,1.83Z" transform="translate(0.75 1.63)"/><path class="cls-163" d="M3.67,1.83C3.73,1.2,3,.57,2.1.44S.38.71.33,1.34,1,2.6,1.9,2.74,3.62,2.47,3.67,1.83Z" transform="translate(0.75 1.63)"/><path class="cls-164" d="M3.65,1.83C3.71,1.21,3,.59,2.1.45S.4.69.34,1.31,1,2.56,1.89,2.7,3.59,2.46,3.65,1.83Z" transform="translate(0.75 1.63)"/><path class="cls-165" d="M3.63,1.84C3.69,1.23,3,.61,2.1.45S.42.67.36,1.28,1,2.51,1.88,2.67,3.57,2.45,3.63,1.84Z" transform="translate(0.75 1.63)"/><path class="cls-166" d="M3.61,1.84C3.67,1.24,3,.62,2.11.46S.44.66.37,1.26,1,2.47,1.87,2.63,3.54,2.44,3.61,1.84Z" transform="translate(0.75 1.63)"/><path class="cls-167" d="M3.59,1.84C3.65,1.25,3,.64,2.11.47S.45.64.39,1.23,1,2.43,1.86,2.6,3.52,2.43,3.59,1.84Z" transform="translate(0.75 1.63)"/><path class="cls-168" d="M3.56,1.84C3.64,1.27,3,.66,2.11.48S.47.62.4,1.2,1,2.38,1.85,2.56,3.49,2.42,3.56,1.84Z" transform="translate(0.75 1.63)"/><path class="cls-169" d="M3.54,1.85C3.62,1.28,3,.67,2.11.49S.49.61.41,1.17,1,2.34,1.84,2.53,3.47,2.41,3.54,1.85Z" transform="translate(0.75 1.63)"/><path class="cls-170" d="M3.52,1.85C3.6,1.3,3,.69,2.11.5S.51.59.43,1.14,1,2.3,1.83,2.49,3.44,2.4,3.52,1.85Z" transform="translate(0.75 1.63)"/><path class="cls-171" d="M3.52,1.83C3.59,1.28,3,.68,2.12.49S.51.58.43,1.13,1,2.28,1.84,2.48,3.44,2.39,3.52,1.83Z" transform="translate(0.75 1.63)"/><path class="cls-172" d="M3.51,1.82C3.59,1.27,3,.67,2.12.48S.52.57.44,1.12,1,2.27,1.84,2.46,3.44,2.37,3.51,1.82Z" transform="translate(0.75 1.63)"/><path class="cls-173" d="M3.51,1.81C3.59,1.26,3,.66,2.12.47S.53.56.45,1.11,1,2.26,1.84,2.45,3.43,2.36,3.51,1.81Z" transform="translate(0.75 1.63)"/><path class="cls-174" d="M3.51,1.8C3.58,1.25,3,.65,2.12.46S.53.55.46,1.1,1,2.24,1.84,2.44,3.43,2.34,3.51,1.8Z" transform="translate(0.75 1.63)"/><path class="cls-175" d="M3.5,1.78C3.58,1.24,3,.64,2.12.45S.54.55.46,1.09,1,2.23,1.84,2.42,3.42,2.33,3.5,1.78Z" transform="translate(0.75 1.63)"/><path class="cls-176" d="M3.5,1.77C3.57,1.23,3,.63,2.12.44S.55.54.47,1.08,1,2.22,1.85,2.41,3.42,2.31,3.5,1.77Z" transform="translate(0.75 1.63)"/><path class="cls-177" d="M3.49,1.76C3.57,1.22,3,.63,2.12.43S.55.53.48,1.07,1,2.2,1.85,2.39,3.42,2.3,3.49,1.76Z" transform="translate(0.75 1.63)"/><path class="cls-178" d="M3.49,1.75C3.56,1.21,3,.62,2.12.43S.56.52.49,1.06,1,2.19,1.85,2.38,3.41,2.28,3.49,1.75Z" transform="translate(0.75 1.63)"/><path class="cls-179" d="M3.49,1.73C3.56,1.2,3,.61,2.13.42S.57.51.49,1.05,1,2.18,1.85,2.36,3.41,2.27,3.49,1.73Z" transform="translate(0.75 1.63)"/><path class="cls-180" d="M3.48,1.72C3.56,1.18,3,.6,2.13.41S.58.5.5,1,1,2.16,1.85,2.35,3.41,2.26,3.48,1.72Z" transform="translate(0.75 1.63)"/><path class="cls-181" d="M3.48,1.71C3.55,1.17,3,.59,2.13.4S.58.49.51,1,1,2.15,1.86,2.34,3.4,2.24,3.48,1.71Z" transform="translate(0.75 1.63)"/><path class="cls-182" d="M3.47,1.69C3.55,1.16,3,.58,2.13.39S.59.49.51,1,1,2.13,1.86,2.32,3.4,2.23,3.47,1.69Z" transform="translate(0.75 1.63)"/><path class="cls-183" d="M3.47,1.68C3.54,1.15,2.94.57,2.13.38S.6.48.52,1s.53,1.11,1.34,1.3S3.39,2.21,3.47,1.68Z" transform="translate(0.75 1.63)"/><path class="cls-184" d="M3.47,1.67C3.54,1.14,2.94.56,2.13.37S.6.47.53,1s.52,1.11,1.33,1.29S3.39,2.2,3.47,1.67Z" transform="translate(0.75 1.63)"/><path class="cls-185" d="M3.46,1.66C3.54,1.13,2.94.55,2.13.37S.61.46.54,1s.52,1.1,1.32,1.29S3.39,2.18,3.46,1.66Z" transform="translate(0.75 1.63)"/><path class="cls-186" d="M3.46,1.64C3.53,1.12,2.94.54,2.13.36S.62.45.54,1s.52,1.1,1.33,1.28S3.38,2.17,3.46,1.64Z" transform="translate(0.75 1.63)"/><path class="cls-187" d="M3.45,1.63C3.53,1.11,2.94.53,2.14.35S.62.44.55,1s.52,1.1,1.32,1.28S3.38,2.16,3.45,1.63Z" transform="translate(0.75 1.63)"/><path class="cls-188" d="M3.45,1.62C3.52,1.09,2.94.52,2.14.34S.63.43.56,1s.51,1.09,1.31,1.27S3.38,2.14,3.45,1.62Z" transform="translate(0.75 1.63)"/><path class="cls-189" d="M3.45,1.6C3.52,1.08,2.93.51,2.14.33S.64.43.57,1,1.08,2,1.87,2.22,3.37,2.13,3.45,1.6Z" transform="translate(0.75 1.63)"/><path class="cls-190" d="M3.44,1.59C3.51,1.07,2.93.5,2.14.32S.65.42.57.94,1.08,2,1.87,2.21,3.37,2.11,3.44,1.59Z" transform="translate(0.75 1.63)"/><path class="cls-191" d="M3.44,1.58C3.51,1.06,2.93.49,2.14.31S.65.41.58.93,1.09,2,1.88,2.19,3.36,2.1,3.44,1.58Z" transform="translate(0.75 1.63)"/><path class="cls-192" d="M3.43,1.57C3.51,1.05,2.93.49,2.14.31S.66.4.59.92,1.09,2,1.88,2.18,3.36,2.08,3.43,1.57Z" transform="translate(0.75 1.63)"/><path class="cls-193" d="M3.43,1.55C3.5,1,2.93.48,2.14.3S.67.39.59.91,1.1,2,1.88,2.16,3.36,2.07,3.43,1.55Z" transform="translate(0.75 1.63)"/><path class="cls-194" d="M3.43,1.54C3.5,1,2.92.47,2.14.29S.67.38.6.9,1.1,2,1.88,2.15,3.35,2.05,3.43,1.54Z" transform="translate(0.75 1.63)"/><path class="cls-195" d="M3.42,1.53C3.49,1,2.92.46,2.15.28S.68.37.61.89,1.11,2,1.88,2.13,3.35,2,3.42,1.53Z" transform="translate(0.75 1.63)"/><path class="cls-196" d="M3.42,1.52C3.49,1,2.92.45,2.15.27S.69.36.62.88s.49,1.06,1.27,1.24S3.34,2,3.42,1.52Z" transform="translate(0.75 1.63)"/><path class="cls-197" d="M3.4,1.51C3.47,1,2.91.46,2.15.28S.7.37.63.88s.49,1,1.26,1.23S3.33,2,3.4,1.51Z" transform="translate(0.75 1.63)"/><path class="cls-198" d="M3.38,1.51C3.45,1,2.9.47,2.14.29S.72.38.65.88s.48,1,1.24,1.22S3.31,2,3.38,1.51Z" transform="translate(0.75 1.63)"/><path class="cls-199" d="M3.37,1.5C3.44,1,2.89.47,2.14.3S.74.39.67.89s.48,1,1.22,1.2S3.3,2,3.37,1.5Z" transform="translate(0.75 1.63)"/><path class="cls-200" d="M3.35,1.5C3.42,1,2.88.48,2.14.32S.75.4.68.89s.48,1,1.21,1.19S3.28,2,3.35,1.5Z" transform="translate(0.75 1.63)"/><path class="cls-201" d="M3.33,1.5C3.4,1,2.87.49,2.14.33S.77.41.7.89s.47,1,1.19,1.17S3.27,2,3.33,1.5Z" transform="translate(0.75 1.63)"/><path class="cls-202" d="M3.32,1.49C3.38,1,2.86.5,2.14.34S.78.42.72.9s.46,1,1.18,1.15S3.25,2,3.32,1.49Z" transform="translate(0.75 1.63)"/><path class="cls-203" d="M3.3,1.49C3.37,1,2.84.51,2.14.35S.8.43.73.9,1.19,1.88,1.9,2,3.23,2,3.3,1.49Z" transform="translate(0.75 1.63)"/><path class="cls-204" d="M3.28,1.48C3.35,1,2.83.52,2.13.36S.81.44.75.91,1.2,1.87,1.9,2,3.22,2,3.28,1.48Z" transform="translate(0.75 1.63)"/><path class="cls-205" d="M3.27,1.48C3.33,1,2.82.53,2.13.37S.83.45.77.91,1.21,1.86,1.9,2,3.2,1.94,3.27,1.48Z" transform="translate(0.75 1.63)"/><path class="cls-206" d="M3.25,1.48C3.31,1,2.81.54,2.13.38S.85.46.78.91,1.22,1.85,1.9,2,3.19,1.93,3.25,1.48Z" transform="translate(0.75 1.63)"/><path class="cls-207" d="M3.23,1.47C3.3,1,2.8.55,2.13.39S.86.47.8.92,1.23,1.84,1.9,2,3.17,1.92,3.23,1.47Z" transform="translate(0.75 1.63)"/><path class="cls-208" d="M3.22,1.47C3.28,1,2.79.55,2.13.4S.88.48.82.92,1.24,1.84,1.9,2,3.15,1.91,3.22,1.47Z" transform="translate(0.75 1.63)"/><path class="cls-209" d="M3.2,1.47C3.26,1,2.78.56,2.13.41S.89.49.83.93s.42.9,1.08,1S3.14,1.9,3.2,1.47Z" transform="translate(0.75 1.63)"/><path class="cls-210" d="M3.18,1.46C3.24,1,2.77.57,2.12.43S.91.5.85.93s.41.89,1.06,1S3.12,1.89,3.18,1.46Z" transform="translate(0.75 1.63)"/><path class="cls-211" d="M3.17,1.46c.05-.42-.41-.88-1-1S.93.51.87.93s.4.88,1,1S3.11,1.88,3.17,1.46Z" transform="translate(0.75 1.63)"/><path class="cls-212" d="M3.15,1.45c.06-.41-.4-.86-1-1S.94.52.88.94s.41.86,1,1S3.09,1.87,3.15,1.45Z" transform="translate(0.75 1.63)"/><path class="cls-213" d="M3.13,1.45c.06-.41-.39-.85-1-1S1,.53.9.94s.4.85,1,1S3.08,1.86,3.13,1.45Z" transform="translate(0.75 1.63)"/><path class="cls-214" d="M3.12,1.45c0-.4-.39-.84-1-1S1,.54.92.94s.39.84,1,1S3.06,1.85,3.12,1.45Z" transform="translate(0.75 1.63)"/><path class="cls-215" d="M3.1,1.44c0-.39-.39-.82-1-1S1,.55.93,1s.39.82,1,1S3,1.84,3.1,1.44Z" transform="translate(0.75 1.63)"/><path class="cls-216" d="M3.08,1.44c.06-.39-.38-.81-1-.95S1,.56,1,1s.38.81,1,1S3,1.83,3.08,1.44Z" transform="translate(0.75 1.63)"/><path class="cls-217" d="M3.07,1.43c.05-.38-.38-.79-1-.93S1,.57,1,1s.37.8,1,.93S3,1.82,3.07,1.43Z" transform="translate(0.75 1.63)"/><path class="cls-218" d="M3.05,1.43c.05-.38-.37-.79-.94-.92S1,.58,1,1s.37.79.94.92S3,1.81,3.05,1.43Z" transform="translate(0.75 1.63)"/><path class="cls-219" d="M3,1.43c.05-.37-.36-.78-.92-.9S1.05.59,1,1s.36.78.92.91S3,1.8,3,1.43Z" transform="translate(0.75 1.63)"/><path class="cls-220" d="M3,1.42c0-.36-.36-.76-.91-.88S1.07.6,1,1s.35.76.9.88S3,1.79,3,1.42Z" transform="translate(0.75 1.63)"/><path class="cls-221" d="M3,1.42c0-.36-.35-.75-.89-.87S1.08.61,1,1s.35.75.9.87S3,1.78,3,1.42Z" transform="translate(0.75 1.63)"/><path class="cls-222" d="M3,1.42c0-.36-.34-.74-.87-.86S1.1.62,1.05,1s.34.74.88.86S2.93,1.77,3,1.42Z" transform="translate(0.75 1.63)"/><path class="cls-223" d="M3,1.4c0-.34-.34-.72-.86-.84s-1,.06-1,.41.34.72.86.84S2.92,1.75,3,1.4Z" transform="translate(0.75 1.63)"/><path class="cls-224" d="M3,1.39c0-.34-.33-.71-.85-.83s-1,.06-1,.4.33.72.85.84S2.91,1.73,3,1.39Z" transform="translate(0.75 1.63)"/><path class="cls-225" d="M3,1.38c0-.33-.32-.7-.83-.82s-1,.06-1,.4.33.7.84.82S2.91,1.72,3,1.38Z" transform="translate(0.75 1.63)"/><path class="cls-226" d="M2.94,1.37C3,1,2.62.68,2.12.56s-1,.06-1,.39.32.7.82.81S2.9,1.7,2.94,1.37Z" transform="translate(0.75 1.63)"/><path class="cls-227" d="M2.93,1.36C3,1,2.62.68,2.12.56s-.93.06-1,.39.31.68.81.79S2.89,1.68,2.93,1.36Z" transform="translate(0.75 1.63)"/><path class="cls-228" d="M2.92,1.35C3,1,2.61.68,2.13.57s-.92.05-1,.38.31.67.79.78S2.88,1.67,2.92,1.35Z" transform="translate(0.75 1.63)"/><path class="cls-229" d="M2.91,1.34C3,1,2.61.68,2.13.57s-.9.05-.94.37.3.66.78.77S2.87,1.65,2.91,1.34Z" transform="translate(0.75 1.63)"/><path class="cls-230" d="M2.91,1.32C3,1,2.6.68,2.13.57S1.25.63,1.2.94s.31.64.78.75S2.86,1.63,2.91,1.32Z" transform="translate(0.75 1.63)"/><path class="cls-231" d="M2.9,1.31c0-.3-.3-.64-.76-.74s-.87.06-.92.36.3.64.76.74S2.85,1.62,2.9,1.31Z" transform="translate(0.75 1.63)"/><path class="cls-232" d="M2.89,1.3c0-.3-.3-.63-.75-.73s-.85.06-.9.36.29.62.75.73S2.84,1.6,2.89,1.3Z" transform="translate(0.75 1.63)"/><path class="cls-233" d="M2.88,1.29c0-.3-.29-.62-.74-.72S1.3.63,1.26.92s.29.62.73.72S2.84,1.58,2.88,1.29Z" transform="translate(0.75 1.63)"/><path class="cls-234" d="M2.87,1.28c0-.29-.28-.61-.72-.71s-.83.06-.87.35.28.6.72.7S2.83,1.57,2.87,1.28Z" transform="translate(0.75 1.63)"/><path class="cls-235" d="M2.86,1.27c0-.29-.28-.6-.71-.7S1.34.63,1.3.91s.28.59.71.69S2.82,1.55,2.86,1.27Z" transform="translate(0.75 1.63)"/><path class="cls-236" d="M2.85,1.25c0-.27-.27-.58-.69-.67s-.8.05-.84.33.27.58.69.67S2.81,1.53,2.85,1.25Z" transform="translate(0.75 1.63)"/><path class="cls-237" d="M2.84,1.24c0-.27-.27-.57-.68-.66S1.38.63,1.34.9s.27.57.68.67S2.8,1.52,2.84,1.24Z" transform="translate(0.75 1.63)"/><path class="cls-238" d="M2.83,1.23c0-.27-.26-.56-.67-.65S1.4.63,1.36.9s.26.56.67.65S2.79,1.5,2.83,1.23Z" transform="translate(0.75 1.63)"/><path class="cls-239" d="M2.82,1.22c0-.26-.26-.55-.65-.64s-.76.05-.79.31.25.55.65.64S2.78,1.48,2.82,1.22Z" transform="translate(0.75 1.63)"/><path class="cls-240" d="M2.81,1.21c0-.26-.25-.54-.64-.63S1.43.63,1.4.89s.25.53.64.62S2.77,1.47,2.81,1.21Z" transform="translate(0.75 1.63)"/><path class="cls-241" d="M2.8,1.2c0-.26-.25-.53-.63-.62s-.72.05-.75.3.24.53.62.62S2.76,1.45,2.8,1.2Z" transform="translate(0.75 1.63)"/><path class="cls-242" d="M2.79,1.19c0-.25-.24-.52-.61-.61s-.71.05-.74.3.24.51.61.6S2.76,1.43,2.79,1.19Z" transform="translate(0.75 1.63)"/><path class="cls-243" d="M2.78,1.17c0-.24-.23-.5-.6-.59s-.69.05-.73.29.24.51.61.59S2.75,1.42,2.78,1.17Z" transform="translate(0.75 1.63)"/><path class="cls-244" d="M2.77,1.16c0-.23-.23-.49-.59-.57s-.67,0-.71.28.23.49.59.57S2.74,1.4,2.77,1.16Z" transform="translate(0.75 1.63)"/><path class="cls-245" d="M2.76,1.15c0-.23-.22-.48-.57-.56s-.66,0-.7.27.23.48.58.56S2.73,1.38,2.76,1.15Z" transform="translate(0.75 1.63)"/><path class="cls-246" d="M2.75,1.14c0-.23-.22-.47-.56-.55s-.65,0-.68.27.22.47.56.55S2.72,1.37,2.75,1.14Z" transform="translate(0.75 1.63)"/><path class="cls-247" d="M2.74,1.13c0-.22-.21-.46-.55-.54s-.63,0-.66.26.22.46.55.54S2.71,1.35,2.74,1.13Z" transform="translate(0.75 1.63)"/><path class="cls-248" d="M2.73,1.12C2.76.9,2.52.67,2.2.59s-.62,0-.65.26.21.45.54.52S2.7,1.33,2.73,1.12Z" transform="translate(0.75 1.63)"/><path class="cls-249" d="M2.73,1.12C2.76.9,2.52.67,2.2.59s-.62,0-.65.26.21.45.54.52S2.7,1.33,2.73,1.12Z" transform="translate(0.75 1.63)"/><path class="cls-250" d="M2.73,1.11C2.76.9,2.52.67,2.2.6s-.61,0-.64.25.2.44.53.52S2.7,1.33,2.73,1.11Z" transform="translate(0.75 1.63)"/><path class="cls-251" d="M2.72,1.11C2.75.9,2.52.67,2.2.6s-.61,0-.64.25.21.44.53.51S2.69,1.33,2.72,1.11Z" transform="translate(0.75 1.63)"/><path class="cls-252" d="M2.72,1.11C2.75.9,2.51.67,2.2.6s-.61,0-.64.25.21.44.53.51S2.69,1.32,2.72,1.11Z" transform="translate(0.75 1.63)"/><path class="cls-253" d="M2.72,1.11C2.75.9,2.51.67,2.2.6s-.6,0-.63.25.2.44.52.51S2.69,1.32,2.72,1.11Z" transform="translate(0.75 1.63)"/><path class="cls-254" d="M2.71,1.11C2.74.9,2.51.68,2.2.6s-.6,0-.63.25.2.44.52.51S2.68,1.32,2.71,1.11Z" transform="translate(0.75 1.63)"/><path class="cls-255" d="M2.71,1.11c0-.21-.2-.43-.52-.5s-.59,0-.61.24.2.43.51.51S2.68,1.32,2.71,1.11Z" transform="translate(0.75 1.63)"/><path class="cls-256" d="M2.71,1.11c0-.21-.2-.43-.52-.5s-.58,0-.61.24.2.43.51.5S2.68,1.32,2.71,1.11Z" transform="translate(0.75 1.63)"/><path class="cls-257" d="M2.7,1.11c0-.2-.2-.43-.51-.5s-.58,0-.61.24.2.43.51.5S2.67,1.31,2.7,1.11Z" transform="translate(0.75 1.63)"/><path class="cls-258" d="M2.7,1.11c0-.2-.2-.43-.51-.5s-.58,0-.6.24.19.43.5.5S2.67,1.31,2.7,1.11Z" transform="translate(0.75 1.63)"/><path class="cls-259" d="M2.69,1.11c0-.2-.19-.42-.5-.49s-.57,0-.6.23.2.43.5.5S2.67,1.31,2.69,1.11Z" transform="translate(0.75 1.63)"/><path class="cls-260" d="M2.69,1.11c0-.2-.19-.42-.5-.49s-.57,0-.6.24.2.41.5.48S2.66,1.31,2.69,1.11Z" transform="translate(0.75 1.63)"/><path class="cls-261" d="M2.69,1.11c0-.2-.2-.42-.5-.49s-.57,0-.59.24.19.41.49.48S2.66,1.3,2.69,1.11Z" transform="translate(0.75 1.63)"/><path class="cls-262" d="M2.68,1.1c0-.19-.19-.41-.49-.48s-.56,0-.59.24.19.41.49.48S2.66,1.3,2.68,1.1Z" transform="translate(0.75 1.63)"/><path class="cls-263" d="M2.68,1.1c0-.19-.19-.41-.49-.47s-.56,0-.59.23.19.41.49.48S2.65,1.3,2.68,1.1Z" transform="translate(0.75 1.63)"/><path class="cls-264" d="M2.68,1.1c0-.19-.19-.4-.49-.47s-.56,0-.58.23.19.41.48.47S2.65,1.3,2.68,1.1Z" transform="translate(0.75 1.63)"/><path class="cls-265" d="M2.67,1.1c0-.19-.18-.4-.48-.47s-.55,0-.58.23.19.4.48.47S2.65,1.3,2.67,1.1Z" transform="translate(0.75 1.63)"/><path class="cls-266" d="M2.67,1.1c0-.19-.19-.4-.48-.47s-.55,0-.58.23.19.4.48.47S2.64,1.29,2.67,1.1Z" transform="translate(0.75 1.63)"/><path class="cls-267" d="M2.67,1.1c0-.19-.19-.4-.48-.46s-.55,0-.57.22.18.4.47.47S2.64,1.29,2.67,1.1Z" transform="translate(0.75 1.63)"/><path class="cls-268" d="M2.66,1.1c0-.19-.18-.4-.47-.46s-.54,0-.57.22.19.4.47.46S2.64,1.29,2.66,1.1Z" transform="translate(0.75 1.63)"/><path class="cls-269" d="M2.66,1.1c0-.19-.18-.4-.47-.46s-.54,0-.57.22.19.4.47.46S2.63,1.29,2.66,1.1Z" transform="translate(0.75 1.63)"/><path class="cls-270" d="M2.66,1.1c0-.19-.19-.39-.47-.46s-.54,0-.56.22.18.4.46.46S2.63,1.29,2.66,1.1Z" transform="translate(0.75 1.63)"/><path class="cls-271" d="M2.65,1.1c0-.19-.18-.39-.46-.46s-.53,0-.56.22.18.39.46.46S2.63,1.28,2.65,1.1Z" transform="translate(0.75 1.63)"/><path class="cls-272" d="M2.65,1.1c0-.19-.18-.39-.46-.45s-.53,0-.55.22.17.38.45.45S2.62,1.28,2.65,1.1Z" transform="translate(0.75 1.63)"/><path class="cls-273" d="M2.65,1.1c0-.19-.18-.39-.46-.45s-.53,0-.55.22.18.38.46.44S2.62,1.28,2.65,1.1Z" transform="translate(0.75 1.63)"/><path class="cls-274" d="M2.64,1.1c0-.19-.18-.39-.45-.45s-.52,0-.55.22.18.38.46.44S2.62,1.28,2.64,1.1Z" transform="translate(0.75 1.63)"/></g><path class="cls-275" d="M4.39.75C5.08,2.37,5,4,4.15,4.32S2.11,3.63,1.42,2s-.58-3.22.24-3.57S3.7-.87,4.39.75Z" transform="translate(0.75 1.63)"/><path class="cls-276" d="M3.89,2.26A1.63,1.63,0,1,1,2.26.63,1.63,1.63,0,0,1,3.89,2.26Z" transform="translate(0.75 1.63)"/></g><g class="cls-277"><path class="cls-278" d="M2.26,3.89H2l-.17,0a1.61,1.61,0,0,1-.94-.59,1.74,1.74,0,0,1-.32-.7,1.65,1.65,0,0,1,.07-.9,1.94,1.94,0,0,1,.22-.43A1.59,1.59,0,0,1,1.26.89a1.64,1.64,0,0,1,1-.33,1.7,1.7,0,0,1,1,.33,1.75,1.75,0,0,1,.36.36,1.63,1.63,0,0,1,.23.43,1.75,1.75,0,0,1,.07.9,1.75,1.75,0,0,1-.33.7,1.62,1.62,0,0,1-.93.59l-.17,0H2.26a3.93,3.93,0,0,0,.39-.08,1.61,1.61,0,0,0,.86-.6,1.53,1.53,0,0,0,.29-.66,1.57,1.57,0,0,0-.08-.82,1.35,1.35,0,0,0-.21-.39A1.72,1.72,0,0,0,3.18,1a1.6,1.6,0,0,0-.92-.3,1.6,1.6,0,0,0-.91.3A1.72,1.72,0,0,0,1,1.34a1.39,1.39,0,0,0-.22.39,1.67,1.67,0,0,0-.07.82A1.52,1.52,0,0,0,1,3.21a1.61,1.61,0,0,0,.86.6C2.12,3.88,2.26,3.88,2.26,3.89Z" transform="translate(0.75 1.63)"/><path class="cls-279" d="M2.33,3.89s.14,0,.38-.09a1.65,1.65,0,0,0,.83-.62,1.58,1.58,0,0,0,.18-1.47A1.64,1.64,0,0,0,3.17,1a1.56,1.56,0,0,0-2.36.71A1.61,1.61,0,0,0,1,3.18a1.74,1.74,0,0,0,.83.62c.24.07.39.08.39.09a.77.77,0,0,1-.4,0,1.61,1.61,0,0,1-.9-.61A1.65,1.65,0,0,1,.68,1.66,1.6,1.6,0,0,1,1.27.88a1.7,1.7,0,0,1,1-.32,1.73,1.73,0,0,1,1,.32,1.66,1.66,0,0,1,.59.78,1.65,1.65,0,0,1-.22,1.58,1.61,1.61,0,0,1-.9.61A.77.77,0,0,1,2.33,3.89Z" transform="translate(0.75 1.63)"/><path class="cls-280" d="M2.4,3.88l.1,0,.27-.08a1.66,1.66,0,0,0,.8-.64,1.58,1.58,0,0,0,.14-1.45A1.54,1.54,0,0,0,3.16,1a1.56,1.56,0,0,0-.9-.29A1.53,1.53,0,0,0,1.37,1a1.42,1.42,0,0,0-.55.69A1.58,1.58,0,0,0,1,3.14a1.66,1.66,0,0,0,.8.64L2,3.86l.1,0s0,0-.1,0a1.49,1.49,0,0,1-.29-.06A1.6,1.6,0,0,1,.87,3.2,1.66,1.66,0,0,1,.69,1.63,1.66,1.66,0,0,1,1.28.87a1.73,1.73,0,0,1,1-.31,1.79,1.79,0,0,1,1,.31,1.73,1.73,0,0,1,.59.76A1.71,1.71,0,0,1,3.66,3.2a1.6,1.6,0,0,1-.87.63,1.49,1.49,0,0,1-.29.06C2.43,3.89,2.4,3.89,2.4,3.88Z" transform="translate(0.75 1.63)"/><path class="cls-281" d="M2.46,3.88s.14,0,.37-.12a1.61,1.61,0,0,0,.76-.66,1.48,1.48,0,0,0,.23-.65,1.58,1.58,0,0,0-.12-.79A1.55,1.55,0,0,0,3.15,1,1.59,1.59,0,0,0,2.74.78,1.92,1.92,0,0,0,2.26.71a1.84,1.84,0,0,0-.47.07A1.44,1.44,0,0,0,1.38,1a1.57,1.57,0,0,0-.56.67,1.69,1.69,0,0,0-.11.79,1.61,1.61,0,0,0,.22.65,1.67,1.67,0,0,0,.77.66c.22.09.36.1.36.12H2a1.11,1.11,0,0,1-.28-.07,1.57,1.57,0,0,1-.84-.65,1.82,1.82,0,0,1-.26-.7A1.7,1.7,0,0,1,.7,1.61,1.75,1.75,0,0,1,1.29.87,1.53,1.53,0,0,1,1.75.64,1.75,1.75,0,0,1,2.26.56a1.82,1.82,0,0,1,.52.08,1.47,1.47,0,0,1,.45.23,1.7,1.7,0,0,1,.6.74,1.69,1.69,0,0,1,.11.85,1.55,1.55,0,0,1-.26.7,1.52,1.52,0,0,1-.83.65,1.11,1.11,0,0,1-.28.07Z" transform="translate(0.75 1.63)"/><path class="cls-282" d="M2.53,3.87s.14,0,.36-.13a1.63,1.63,0,0,0,.73-.68,1.6,1.6,0,0,0,.2-.65,1.5,1.5,0,0,0-.13-.77,1.34,1.34,0,0,0-.22-.36A1.57,1.57,0,0,0,3.14,1a1.74,1.74,0,0,0-.41-.2A1.49,1.49,0,0,0,2.26.71,1.43,1.43,0,0,0,1.8.78a2,2,0,0,0-.42.2,1.52,1.52,0,0,0-.32.3,1.69,1.69,0,0,0-.23.36,1.61,1.61,0,0,0-.13.77,1.47,1.47,0,0,0,.21.65,1.63,1.63,0,0,0,.73.68c.22.1.36.12.36.13a.2.2,0,0,1-.1,0l-.12,0-.16,0a1.63,1.63,0,0,1-.8-.67,1.71,1.71,0,0,1-.24-.7,1.8,1.8,0,0,1,.13-.84A1.58,1.58,0,0,1,1,1.19,1.83,1.83,0,0,1,1.3.86,1.88,1.88,0,0,1,1.75.64,1.81,1.81,0,0,1,2.26.56a1.7,1.7,0,0,1,.51.08,1.57,1.57,0,0,1,.45.22,1.63,1.63,0,0,1,.36.33,1.58,1.58,0,0,1,.24.39,1.67,1.67,0,0,1,.12.84,1.57,1.57,0,0,1-.23.7,1.63,1.63,0,0,1-.8.67l-.16,0-.12,0A.19.19,0,0,1,2.53,3.87Z" transform="translate(0.75 1.63)"/><path class="cls-283" d="M2.6,3.86s.13,0,.34-.15A1.65,1.65,0,0,0,3.64,3,1.58,1.58,0,0,0,3.13,1,1.4,1.4,0,0,0,2.72.78,1.39,1.39,0,0,0,2.26.71,1.47,1.47,0,0,0,1.8.78,1.69,1.69,0,0,0,1.39,1a1.76,1.76,0,0,0-.55.64A1.63,1.63,0,0,0,.88,3a1.66,1.66,0,0,0,.71.68c.21.11.34.13.34.15h-.1a1.38,1.38,0,0,1-.27-.09,1.6,1.6,0,0,1-.77-.69A1.71,1.71,0,0,1,.72,1.56a1.76,1.76,0,0,1,.6-.71A1.63,1.63,0,0,1,1.76.64a2.09,2.09,0,0,1,.5-.08,2.17,2.17,0,0,1,.51.08,1.78,1.78,0,0,1,.44.21,1.74,1.74,0,0,1,.59.71,1.65,1.65,0,0,1-.07,1.51A1.52,1.52,0,0,1,3,3.76a1.15,1.15,0,0,1-.26.09Z" transform="translate(0.75 1.63)"/><path class="cls-284" d="M2.66,3.84s.13,0,.34-.15A1.71,1.71,0,0,0,3.67,3a1.59,1.59,0,0,0-.55-2,1.84,1.84,0,0,0-.4-.19A1.76,1.76,0,0,0,2.26.71a1.68,1.68,0,0,0-.45.06,1.64,1.64,0,0,0-.4.19,1.67,1.67,0,0,0-.56.63A1.6,1.6,0,0,0,.86,3a1.71,1.71,0,0,0,.67.71c.21.11.34.14.33.15a.71.71,0,0,1-.35-.11A1.55,1.55,0,0,1,.77,3a1.65,1.65,0,0,1,0-1.49,1.68,1.68,0,0,1,1-.9A2,2,0,0,1,2.26.56a2.09,2.09,0,0,1,.5.08A1.78,1.78,0,0,1,3.2.85a1.7,1.7,0,0,1,.59.69A1.65,1.65,0,0,1,3.75,3a1.54,1.54,0,0,1-.73.7A.73.73,0,0,1,2.66,3.84Z" transform="translate(0.75 1.63)"/><path class="cls-285" d="M2.73,3.82l.08,0a1.31,1.31,0,0,0,.24-.12,1.65,1.65,0,0,0,.64-.72,1.57,1.57,0,0,0,0-1.37A1.55,1.55,0,0,0,3.11,1,1.73,1.73,0,0,0,2.26.7,1.72,1.72,0,0,0,1.42,1a1.58,1.58,0,0,0-.56.62,1.61,1.61,0,0,0,.62,2.09l.23.12.09,0s0,0-.1,0a1.47,1.47,0,0,1-.25-.11A1.58,1.58,0,0,1,.75,3a1.7,1.7,0,0,1,0-1.48A1.64,1.64,0,0,1,1.34.84,1.71,1.71,0,0,1,2.26.57a1.74,1.74,0,0,1,.93.27,1.72,1.72,0,0,1,.59.67A1.7,1.7,0,0,1,3.78,3a1.63,1.63,0,0,1-.7.71,1.49,1.49,0,0,1-.26.11C2.76,3.82,2.73,3.83,2.73,3.82Z" transform="translate(0.75 1.63)"/><path class="cls-286" d="M2.79,3.8s.12,0,.31-.17a1.65,1.65,0,0,0,.61-.73,1.44,1.44,0,0,0,.12-.64,1.56,1.56,0,0,0-.18-.71A1.51,1.51,0,0,0,3.1,1,1.59,1.59,0,0,0,2.26.7,1.59,1.59,0,0,0,1.43,1a1.46,1.46,0,0,0-.56.6,1.56,1.56,0,0,0-.18.71,1.59,1.59,0,0,0,.13.64,1.71,1.71,0,0,0,.6.73c.19.12.32.16.31.17s0,0-.09,0a1.16,1.16,0,0,1-.24-.11,1.56,1.56,0,0,1-.67-.73,1.58,1.58,0,0,1-.15-.68,1.67,1.67,0,0,1,.18-.77A1.69,1.69,0,0,1,1.35.83,1.67,1.67,0,0,1,2.26.57a1.67,1.67,0,0,1,.91.26,1.72,1.72,0,0,1,.6.66A1.8,1.8,0,0,1,4,2.26a1.75,1.75,0,0,1-.15.68,1.61,1.61,0,0,1-.67.73,1.19,1.19,0,0,1-.25.11C2.82,3.8,2.79,3.81,2.79,3.8Z" transform="translate(0.75 1.63)"/><path class="cls-287" d="M2.85,3.78a2.43,2.43,0,0,0,.3-.19,1.68,1.68,0,0,0,.58-.73,1.64,1.64,0,0,0-.09-1.34A1.52,1.52,0,0,0,3.09.94,1.67,1.67,0,0,0,2.26.7a1.61,1.61,0,0,0-.82.24,1.55,1.55,0,0,0-.56.58A1.59,1.59,0,0,0,.8,2.86a1.67,1.67,0,0,0,.57.73c.19.14.31.18.3.19l-.09,0-.1,0-.14-.07A1.71,1.71,0,0,1,.71,2.9,1.7,1.7,0,0,1,.77,1.46a1.8,1.8,0,0,1,.6-.63A1.6,1.6,0,0,1,2.26.57a1.63,1.63,0,0,1,.9.26,1.69,1.69,0,0,1,.59.63A1.67,1.67,0,0,1,3.81,2.9a1.59,1.59,0,0,1-.63.74l-.13.07-.11,0Z" transform="translate(0.75 1.63)"/><path class="cls-288" d="M2.92,3.75s.11-.06.28-.19a1.86,1.86,0,0,0,.29-.28,1.82,1.82,0,0,0,.25-.46A1.56,1.56,0,0,0,3.63,1.5,1.58,1.58,0,0,0,2.26.7a1.6,1.6,0,0,0-1.37.8A1.64,1.64,0,0,0,.78,2.82,1.84,1.84,0,0,0,1,3.28a1.84,1.84,0,0,0,.28.28c.18.13.29.18.29.19l-.09,0L1.29,3.6A1.54,1.54,0,0,1,.7,2.85a1.67,1.67,0,0,1,.68-2A1.64,1.64,0,0,1,2.26.57a1.7,1.7,0,0,1,.89.25,1.74,1.74,0,0,1,.59.62,1.68,1.68,0,0,1,.09,1.41,1.54,1.54,0,0,1-.6.75A1.14,1.14,0,0,1,3,3.73Z" transform="translate(0.75 1.63)"/><path class="cls-289" d="M3,3.72a2.53,2.53,0,0,0,.27-.2,1.61,1.61,0,0,0,.51-.75,1.57,1.57,0,1,0-3,0,1.68,1.68,0,0,0,.5.75,2,2,0,0,0,.28.2.76.76,0,0,1-.31-.16A1.6,1.6,0,0,1,.68,2.8,1.67,1.67,0,0,1,.8,1.42a1.68,1.68,0,0,1,2.92,0A1.67,1.67,0,0,1,3.85,2.8a1.6,1.6,0,0,1-.57.76A.76.76,0,0,1,3,3.72Z" transform="translate(0.75 1.63)"/><path class="cls-290" d="M3,3.7s.1-.07.26-.22a1.59,1.59,0,0,0,.48-.75,1.63,1.63,0,0,0-.17-1.27,1.57,1.57,0,0,0-2.69,0A1.55,1.55,0,0,0,.75,2.73a1.59,1.59,0,0,0,.48.75c.16.15.26.2.26.22l-.08,0a.85.85,0,0,1-.22-.14,1.63,1.63,0,0,1-.53-.76A1.68,1.68,0,0,1,3.71,1.4a1.64,1.64,0,0,1-.38,2.12,1.06,1.06,0,0,1-.21.14Z" transform="translate(0.75 1.63)"/><path class="cls-291" d="M3.1,3.66s.1-.07.25-.22a1.61,1.61,0,0,0,.25-2A1.62,1.62,0,0,0,2.26.7a1.57,1.57,0,0,0-1.52,2,1.55,1.55,0,0,0,.44.75c.15.15.26.21.25.22a.72.72,0,0,1-.28-.18,1.56,1.56,0,0,1-.5-.77A1.68,1.68,0,0,1,.83,1.37,1.7,1.7,0,0,1,2.26.57a1.68,1.68,0,0,1,1.43.8,1.64,1.64,0,0,1,.18,1.34,1.62,1.62,0,0,1-.49.77A.81.81,0,0,1,3.1,3.66Z" transform="translate(0.75 1.63)"/><path class="cls-292" d="M3.15,3.63s0,0,.07-.06l.17-.17a1.63,1.63,0,0,0,.41-.76,1.57,1.57,0,0,0-.22-1.23A1.65,1.65,0,0,0,3,.9a1.59,1.59,0,0,0-2.1.51A1.61,1.61,0,0,0,.73,2.64a1.63,1.63,0,0,0,.4.76l.18.17.06.06-.07,0-.2-.15a1.71,1.71,0,0,1-.46-.78A1.67,1.67,0,0,1,.85,1.35,1.62,1.62,0,0,1,1.43.8,1.67,1.67,0,0,1,2.26.57,1.73,1.73,0,0,1,3.1.8a1.7,1.7,0,0,1,.58.55,1.66,1.66,0,0,1,.2,1.31,1.62,1.62,0,0,1-.45.78l-.2.15Z" transform="translate(0.75 1.63)"/><path class="cls-293" d="M3.21,3.59s.09-.08.22-.23a1.59,1.59,0,0,0,.38-.76A1.6,1.6,0,0,0,3,.89a1.79,1.79,0,0,0-.77-.2,1.75,1.75,0,0,0-.76.2A1.62,1.62,0,0,0,.71,2.6a1.79,1.79,0,0,0,.38.76l.23.23-.08,0a1.08,1.08,0,0,1-.18-.16,1.61,1.61,0,0,1-.43-.78A1.66,1.66,0,0,1,.86,1.33,1.77,1.77,0,0,1,1.44.79,1.64,1.64,0,0,1,2.26.58a1.61,1.61,0,0,1,.82.21,1.77,1.77,0,0,1,.58.54A1.71,1.71,0,0,1,3.9,2.61a1.61,1.61,0,0,1-.43.78,1.06,1.06,0,0,1-.19.16Z" transform="translate(0.75 1.63)"/><path class="cls-294" d="M3.26,3.55s.09-.08.22-.24a1.69,1.69,0,0,0,.34-.76,1.55,1.55,0,0,0-.26-1.18A1.82,1.82,0,0,0,3,.88,1.78,1.78,0,0,0,2.26.69a1.7,1.7,0,0,0-.75.19A1.71,1.71,0,0,0,1,1.37,1.6,1.6,0,0,0,.7,2.55a1.58,1.58,0,0,0,.35.76c.13.16.22.23.21.24A.91.91,0,0,1,1,3.34a1.62,1.62,0,0,1-.4-.77A1.7,1.7,0,0,1,.88,1.31,1.75,1.75,0,0,1,1.46.78a1.64,1.64,0,0,1,.8-.2,1.7,1.7,0,0,1,.81.2,1.85,1.85,0,0,1,.58.53A1.65,1.65,0,0,1,3.9,2.57a1.53,1.53,0,0,1-.39.77A.73.73,0,0,1,3.26,3.55Z" transform="translate(0.75 1.63)"/><path class="cls-295" d="M3.32,3.5s.07-.07.2-.23a1.75,1.75,0,0,0,.31-.76,1.57,1.57,0,0,0-.29-1.16A1.42,1.42,0,0,0,3,.88,1.61,1.61,0,0,0,2.26.69a1.57,1.57,0,0,0-.74.19A1.53,1.53,0,0,0,1,1.35,1.56,1.56,0,0,0,.7,2.51,1.64,1.64,0,0,0,1,3.27c.12.16.21.23.2.23l-.07,0A1.19,1.19,0,0,1,1,3.3a1.58,1.58,0,0,1-.36-.78A1.64,1.64,0,0,1,.9,1.28a1.74,1.74,0,0,1,.57-.5,1.63,1.63,0,0,1,.79-.2,1.67,1.67,0,0,1,.8.2,1.85,1.85,0,0,1,.57.5,1.64,1.64,0,0,1,.28,1.24,1.67,1.67,0,0,1-.36.78,1.16,1.16,0,0,1-.17.16Z" transform="translate(0.75 1.63)"/><path class="cls-296" d="M3.37,3.46s.07-.08.18-.24a1.65,1.65,0,0,0,.29-.76,1.56,1.56,0,0,0-.31-1.13A1.59,1.59,0,0,0,2.26.69a1.64,1.64,0,0,0-.73.18A1.49,1.49,0,0,0,1,1.33,1.56,1.56,0,0,0,.69,2.46,1.55,1.55,0,0,0,1,3.22a2.71,2.71,0,0,1,.19.24.7.7,0,0,1-.22-.22,1.58,1.58,0,0,1-.33-.77,1.67,1.67,0,0,1,.3-1.21A1.81,1.81,0,0,1,1.48.77,1.7,1.7,0,0,1,3,.77a1.61,1.61,0,0,1,.57.49,1.68,1.68,0,0,1,.31,1.21,1.58,1.58,0,0,1-.33.77A.85.85,0,0,1,3.37,3.46Z" transform="translate(0.75 1.63)"/><path class="cls-297" d="M3.42,3.41s.06-.08.17-.24a1.85,1.85,0,0,0,.26-.76A1.66,1.66,0,0,0,3.51,1.3,1.58,1.58,0,0,0,2.26.69,1.61,1.61,0,0,0,1,1.3,1.65,1.65,0,0,0,.68,2.41a1.6,1.6,0,0,0,.26.76c.1.16.18.24.17.24l-.06-.05A.92.92,0,0,1,.9,3.19a1.6,1.6,0,0,1-.3-.77A1.72,1.72,0,0,1,.93,1.24a1.67,1.67,0,0,1,3,1.18,1.5,1.5,0,0,1-.3.77l-.14.17Z" transform="translate(0.75 1.63)"/><path class="cls-298" d="M3.46,3.36s.07-.08.16-.24a1.62,1.62,0,0,0,.23-.75A1.66,1.66,0,0,0,3.5,1.28,1.61,1.61,0,0,0,2.26.69,1.59,1.59,0,0,0,1,1.28,1.56,1.56,0,0,0,.68,2.37a1.63,1.63,0,0,0,.22.75,2,2,0,0,0,.17.24S1,3.3.87,3.14A1.6,1.6,0,0,1,.6,2.37,1.67,1.67,0,0,1,2.26.58a1.69,1.69,0,0,1,1.32.64,1.65,1.65,0,0,1,.34,1.15,1.61,1.61,0,0,1-.26.77C3.55,3.3,3.47,3.37,3.46,3.36Z" transform="translate(0.75 1.63)"/><path class="cls-299" d="M3.51,3.31s0,0,0-.06a1.18,1.18,0,0,0,.11-.18,1.53,1.53,0,0,0,.2-.75,1.64,1.64,0,0,0-.36-1.06A1.63,1.63,0,0,0,2.26.69,1.59,1.59,0,0,0,.67,2.32a1.79,1.79,0,0,0,.2.75A1.18,1.18,0,0,0,1,3.25l0,.06L1,3.26a.67.67,0,0,1-.13-.17A1.62,1.62,0,0,1,.6,2.32,1.66,1.66,0,0,1,1,1.2,1.69,1.69,0,0,1,2.26.58a1.71,1.71,0,0,1,1.3.62,1.66,1.66,0,0,1,.37,1.12,1.62,1.62,0,0,1-.24.77,1,1,0,0,1-.13.17Z" transform="translate(0.75 1.63)"/><path class="cls-300" d="M3.55,3.26s.05-.08.14-.25a1.79,1.79,0,0,0,.17-.74,1.66,1.66,0,0,0-.39-1A1.61,1.61,0,0,0,2.26.69a1.59,1.59,0,0,0-1.2.55,1.61,1.61,0,0,0-.39,1A1.64,1.64,0,0,0,.84,3c.08.17.15.25.14.25a.17.17,0,0,1,0,0A.7.7,0,0,1,.81,3,1.52,1.52,0,0,1,.6,2.28,1.66,1.66,0,0,1,1,1.18,1.72,1.72,0,0,1,2.26.58a1.7,1.7,0,0,1,1.28.6,1.72,1.72,0,0,1,.39,1.1A1.64,1.64,0,0,1,3.72,3l-.12.18A.17.17,0,0,1,3.55,3.26Z" transform="translate(0.75 1.63)"/><path class="cls-301" d="M3.59,3.21s.05-.09.12-.25a1.55,1.55,0,0,0,.14-.73,1.53,1.53,0,0,0-.4-1A1.61,1.61,0,0,0,2.26.68a1.61,1.61,0,0,0-1.19.54,1.64,1.64,0,0,0-.4,1A1.68,1.68,0,0,0,.81,3l.13.25A.62.62,0,0,1,.78,3,1.64,1.64,0,0,1,1,1.16,1.66,1.66,0,0,1,3.92,2.23,1.57,1.57,0,0,1,3.75,3,1.14,1.14,0,0,1,3.59,3.21Z" transform="translate(0.75 1.63)"/><path class="cls-302" d="M3.63,3.15s0-.08.11-.25a1.58,1.58,0,0,0,.11-.72A1.59,1.59,0,0,0,2.26.68a1.6,1.6,0,0,0-1.17.52,1.62,1.62,0,0,0-.42,1,1.56,1.56,0,0,0,.12.72c.06.17.12.25.11.25a.17.17,0,0,1-.05,0l-.1-.18A1.71,1.71,0,0,1,.6,2.18a1.74,1.74,0,0,1,.42-1,1.67,1.67,0,0,1,2.48,0,1.62,1.62,0,0,1,.42,1,1.46,1.46,0,0,1-.15.74,1.3,1.3,0,0,1-.1.18Z" transform="translate(0.75 1.63)"/><path class="cls-303" d="M3.66,3.1s0-.09.1-.25a1.59,1.59,0,0,0,.09-.71,1.54,1.54,0,0,0-.43-1A1.6,1.6,0,0,0,2.26.68a1.64,1.64,0,0,0-1.16.5,1.66,1.66,0,0,0-.43,1,1.94,1.94,0,0,0,.09.71c.06.16.11.24.11.25a.72.72,0,0,1-.14-.24,1.58,1.58,0,0,1-.12-.73,1.66,1.66,0,0,1,.43-1,1.66,1.66,0,0,1,2.88,1,1.58,1.58,0,0,1-.12.73A.72.72,0,0,1,3.66,3.1Z" transform="translate(0.75 1.63)"/><path class="cls-304" d="M3.7,3s0-.09.08-.25a1.75,1.75,0,0,0,.07-.7,1.62,1.62,0,0,0-.45-.93A1.6,1.6,0,0,0,2.26.68a1.62,1.62,0,0,0-1.14.48,1.54,1.54,0,0,0-.44.93,1.61,1.61,0,0,0,.06.7C.79,3,.84,3,.83,3L.79,3A1.78,1.78,0,0,1,.71,2.8a1.75,1.75,0,0,1-.1-.72,1.63,1.63,0,0,1,.45-1A1.67,1.67,0,0,1,2.26.59a1.71,1.71,0,0,1,1.21.52,1.61,1.61,0,0,1,.44,1,1.61,1.61,0,0,1-.09.72A.74.74,0,0,1,3.73,3Z" transform="translate(0.75 1.63)"/><path class="cls-305" d="M3.73,3a2.31,2.31,0,0,1,.07-.25,1.48,1.48,0,0,0,0-.69,1.64,1.64,0,0,0-.45-.9,1.61,1.61,0,0,0-2.25,0A1.59,1.59,0,0,0,.68,2a1.81,1.81,0,0,0,0,.69A1.59,1.59,0,0,1,.8,3a1.47,1.47,0,0,1-.11-.24A1.61,1.61,0,0,1,.62,2a1.69,1.69,0,0,1,.46-.94A1.67,1.67,0,0,1,2.26.59,1.66,1.66,0,0,1,3.91,2a1.61,1.61,0,0,1-.07.71A1.47,1.47,0,0,1,3.73,3Z" transform="translate(0.75 1.63)"/><path class="cls-306" d="M3.75,2.92s0-.09.07-.25a1.58,1.58,0,0,0,0-.67,1.6,1.6,0,0,0-.47-.87A1.58,1.58,0,0,0,2.26.68a1.56,1.56,0,0,0-1.1.45A1.54,1.54,0,0,0,.69,2a1.58,1.58,0,0,0,0,.67c0,.16.07.24.06.25a1.13,1.13,0,0,1-.1-.24A1.65,1.65,0,0,1,1.1,1.07,1.66,1.66,0,0,1,2.26.59a1.69,1.69,0,0,1,1.17.48A1.63,1.63,0,0,1,3.9,2a1.6,1.6,0,0,1,0,.69A.72.72,0,0,1,3.75,2.92Z" transform="translate(0.75 1.63)"/><path class="cls-307" d="M3.78,2.85s0-.08.06-.24a1.84,1.84,0,0,0,0-.66,1.58,1.58,0,0,0-.48-.84A1.52,1.52,0,0,0,2.26.68a1.55,1.55,0,0,0-1.09.43A1.56,1.56,0,0,0,.7,2a1.63,1.63,0,0,0,0,.66,1.6,1.6,0,0,0,.06.24s0,0,0-.05a.93.93,0,0,1-.06-.18,1.63,1.63,0,0,1,.46-1.57A1.66,1.66,0,0,1,2.26.59a1.69,1.69,0,0,1,1.15.46,1.63,1.63,0,0,1,.46,1.57.93.93,0,0,1-.06.18Z" transform="translate(0.75 1.63)"/><path class="cls-308" d="M3.8,2.79a.15.15,0,0,0,0-.06,1.27,1.27,0,0,0,0-.18,1.66,1.66,0,0,0,0-.65,1.53,1.53,0,0,0-.49-.81A1.56,1.56,0,0,0,2.26.68,1.59,1.59,0,0,0,.71,1.9a1.48,1.48,0,0,0,0,.65c0,.08,0,.14,0,.18s0,.06,0,.06a1,1,0,0,1-.07-.23,1.48,1.48,0,0,1,0-.67A1.65,1.65,0,0,1,1.14,1,1.71,1.71,0,0,1,2.26.59,1.74,1.74,0,0,1,3.39,1a1.62,1.62,0,0,1,.49,1.53A.74.74,0,0,1,3.8,2.79Z" transform="translate(0.75 1.63)"/><path class="cls-309" d="M3.82,2.73a2.42,2.42,0,0,1,0-.24,1.85,1.85,0,0,0,0-.63,1.58,1.58,0,0,0-.49-.79A1.66,1.66,0,0,0,2.26.67a1.62,1.62,0,0,0-1,.4,1.58,1.58,0,0,0-.49.79,1.45,1.45,0,0,0,0,.63c0,.15,0,.23,0,.24a.32.32,0,0,1,0-.06,1.46,1.46,0,0,1,0-.17,1.67,1.67,0,0,1,0-.66A1.65,1.65,0,0,1,1.16,1,1.61,1.61,0,0,1,2.26.6,1.59,1.59,0,0,1,3.36,1a1.58,1.58,0,0,1,.5.82,1.71,1.71,0,0,1,0,.66,1.46,1.46,0,0,1,0,.17S3.83,2.73,3.82,2.73Z" transform="translate(0.75 1.63)"/><path class="cls-310" d="M3.84,2.66a.28.28,0,0,1,0-.06l0-.17a1.66,1.66,0,0,0-.07-.62,1.73,1.73,0,0,0-.5-.76,1.67,1.67,0,0,0-1-.38,1.62,1.62,0,0,0-1,.38,1.57,1.57,0,0,0-.5.76,1.66,1.66,0,0,0-.07.62l0,.17a.28.28,0,0,1,0,.06.53.53,0,0,1-.06-.23A1.46,1.46,0,0,1,.68,1.8a1.67,1.67,0,0,1,.5-.8A1.66,1.66,0,0,1,3.34,1a1.62,1.62,0,0,1,.51.8,1.87,1.87,0,0,1,0,.63A.79.79,0,0,1,3.84,2.66Z" transform="translate(0.75 1.63)"/><path class="cls-311" d="M3.86,2.6s0-.08,0-.23a1.59,1.59,0,0,0-.08-.6A1.65,1.65,0,0,0,3.28,1a1.58,1.58,0,0,0-2,0,1.51,1.51,0,0,0-.51.73,1.89,1.89,0,0,0-.09.6,2,2,0,0,1,0,.23l0-.06s0-.09,0-.17a1.45,1.45,0,0,1,.06-.62A1.7,1.7,0,0,1,1.2,1,1.71,1.71,0,0,1,2.26.6,1.71,1.71,0,0,1,3.32,1a1.73,1.73,0,0,1,.52.77,1.45,1.45,0,0,1,.06.62.58.58,0,0,1,0,.17A.15.15,0,0,1,3.86,2.6Z" transform="translate(0.75 1.63)"/><path class="cls-312" d="M3.87,2.53s0-.08,0-.22a2,2,0,0,0-.11-.59,1.62,1.62,0,0,0-1.51-1,1.57,1.57,0,0,0-1,.35,1.73,1.73,0,0,0-.52.7,1.89,1.89,0,0,0-.1.59c0,.14,0,.22,0,.22l0-.06s0-.09,0-.16a1.64,1.64,0,0,1,.09-.6A1.64,1.64,0,0,1,3.3,1a1.59,1.59,0,0,1,.6,1.34.57.57,0,0,1,0,.16A.15.15,0,0,1,3.87,2.53Z" transform="translate(0.75 1.63)"/><path class="cls-313" d="M3.88,2.46a1.9,1.9,0,0,0-.12-.78A1.62,1.62,0,0,0,3.24,1,1.61,1.61,0,0,0,1.29,1a1.62,1.62,0,0,0-.52.68,1.9,1.9,0,0,0-.12.78.58.58,0,0,1,0-.21,1.89,1.89,0,0,1,.1-.59A1.64,1.64,0,0,1,1.25,1a1.62,1.62,0,0,1,1-.35,1.65,1.65,0,0,1,1,.35,1.61,1.61,0,0,1,.52.71,1.44,1.44,0,0,1,.1.59A.85.85,0,0,1,3.88,2.46Z" transform="translate(0.75 1.63)"/><path class="cls-314" d="M3.88,2.4a.84.84,0,0,0,0-.21,1.42,1.42,0,0,0-.13-.56A1.6,1.6,0,0,0,3.22,1a1.54,1.54,0,0,0-1-.32A1.53,1.53,0,0,0,1.31,1a1.6,1.6,0,0,0-.52.64,1.67,1.67,0,0,0-.14.56,1.87,1.87,0,0,1,0,.21.28.28,0,0,0,0-.06.83.83,0,0,1,0-.16,1.55,1.55,0,0,1,.11-.56A1.59,1.59,0,0,1,1.27.94a1.64,1.64,0,0,1,1-.34,1.67,1.67,0,0,1,1,.34,1.56,1.56,0,0,1,.52.68,1.4,1.4,0,0,1,.12.56.67.67,0,0,1,0,.16S3.89,2.4,3.88,2.4Z" transform="translate(0.75 1.63)"/><path class="cls-315" d="M3.89,2.33a.12.12,0,0,1,0-.05V2.12a1.54,1.54,0,0,0-.15-.53A1.64,1.64,0,0,0,3.2,1a1.62,1.62,0,0,0-.94-.3,1.59,1.59,0,0,0-.93.3,1.56,1.56,0,0,0-.52.62,1.6,1.6,0,0,0-.16.53v.21s0-.07,0-.21a1.84,1.84,0,0,1,.13-.55A1.66,1.66,0,0,1,1.29.92a1.73,1.73,0,0,1,1-.32,1.76,1.76,0,0,1,1,.32,1.66,1.66,0,0,1,.66,1.2A1.66,1.66,0,0,1,3.89,2.33Z" transform="translate(0.75 1.63)"/><path class="cls-316" d="M3.89,2.26a1.91,1.91,0,0,0-.19-.71A1.68,1.68,0,0,0,3.18,1,1.64,1.64,0,0,0,1.35,1a1.82,1.82,0,0,0-.53.6,2.19,2.19,0,0,0-.19.71v0a.92.92,0,0,1,0-.15,1.54,1.54,0,0,1,.15-.53A1.64,1.64,0,0,1,1.31.91,1.76,1.76,0,0,1,2.26.6a1.73,1.73,0,0,1,1,.31,1.59,1.59,0,0,1,.53.62,1.54,1.54,0,0,1,.15.53c0,.06,0,.12,0,.15A.18.18,0,0,0,3.89,2.26Z" transform="translate(0.75 1.63)"/><path class="cls-317" d="M3.89,2.19s0-.07,0-.19a1.76,1.76,0,0,0-.18-.49A1.54,1.54,0,0,0,3.16.94a1.74,1.74,0,0,0-.41-.2A1.93,1.93,0,0,0,2.26.66a1.85,1.85,0,0,0-.48.08,1.74,1.74,0,0,0-.41.2,1.57,1.57,0,0,0-.53.57A1.68,1.68,0,0,0,.67,2a1,1,0,0,0,0,.19A.69.69,0,0,1,.65,2a1.27,1.27,0,0,1,.16-.51,1.63,1.63,0,0,1,.53-.6A2.06,2.06,0,0,1,1.76.68a2.08,2.08,0,0,1,.5-.07,2.09,2.09,0,0,1,.51.07,2.74,2.74,0,0,1,.42.21,1.73,1.73,0,0,1,.53.6A1.7,1.7,0,0,1,3.88,2,.69.69,0,0,1,3.89,2.19Z" transform="translate(0.75 1.63)"/><path class="cls-318" d="M3.88,2.13a.18.18,0,0,0,0,0l0-.14a1.64,1.64,0,0,0-.19-.47A1.67,1.67,0,0,0,3.14.92a1.84,1.84,0,0,0-.4-.19A2.41,2.41,0,0,0,2.26.66a2.42,2.42,0,0,0-.47.07,1.64,1.64,0,0,0-.4.19,1.67,1.67,0,0,0-.52.55,1.64,1.64,0,0,0-.19.47l0,.14a.18.18,0,0,0,0,0,1.29,1.29,0,0,1,0-.19,1.43,1.43,0,0,1,.17-.49A1.57,1.57,0,0,1,1.36.88a1.74,1.74,0,0,1,.41-.2A2,2,0,0,1,2.26.61a1.93,1.93,0,0,1,.49.07,1.81,1.81,0,0,1,.42.2,1.54,1.54,0,0,1,.52.57,1.49,1.49,0,0,1,.18.49C3.89,2.06,3.89,2.13,3.88,2.13Z" transform="translate(0.75 1.63)"/><path class="cls-319" d="M3.88,2.06a2.17,2.17,0,0,0-.24-.63A1.61,1.61,0,0,0,3.12.91,1.64,1.64,0,0,0,2.26.66a1.58,1.58,0,0,0-.85.25,1.52,1.52,0,0,0-.52.52,1.85,1.85,0,0,0-.24.63,1.11,1.11,0,0,1,0-.18,1.39,1.39,0,0,1,.19-.47A1.56,1.56,0,0,1,1.38.87a1.62,1.62,0,0,1,1.76,0,1.51,1.51,0,0,1,.53.54,1.34,1.34,0,0,1,.18.47A.76.76,0,0,1,3.88,2.06Z" transform="translate(0.75 1.63)"/><path class="cls-320" d="M3.87,2a.06.06,0,0,1,0,0,.68.68,0,0,1,0-.13,1.69,1.69,0,0,0-.21-.44A1.6,1.6,0,0,0,3.1.89,1.65,1.65,0,0,0,2.26.66a1.61,1.61,0,0,0-.83.23,1.76,1.76,0,0,0-.52.49,1.6,1.6,0,0,0-.2.44L.67,2a.16.16,0,0,0,0,0s0-.06,0-.17a1.6,1.6,0,0,1,.19-.46A1.86,1.86,0,0,1,1.41.85,1.57,1.57,0,0,1,2.26.61a1.6,1.6,0,0,1,.86.24,1.69,1.69,0,0,1,.52.51,1.42,1.42,0,0,1,.2.46A.72.72,0,0,1,3.87,2Z" transform="translate(0.75 1.63)"/><path class="cls-321" d="M3.86,1.93a2.54,2.54,0,0,0-.27-.59A1.77,1.77,0,0,0,3.08.88,1.59,1.59,0,0,0,2.26.66a1.56,1.56,0,0,0-.81.22,1.54,1.54,0,0,0-.51.46,1.8,1.8,0,0,0-.27.59.18.18,0,0,1,0-.05.35.35,0,0,1,0-.12,1.44,1.44,0,0,1,.2-.43A1.76,1.76,0,0,1,1.43.84,1.61,1.61,0,0,1,2.26.61,1.65,1.65,0,0,1,3.1.84a1.6,1.6,0,0,1,.51.49,1.28,1.28,0,0,1,.21.43,1,1,0,0,1,0,.12A.18.18,0,0,1,3.86,1.93Z" transform="translate(0.75 1.63)"/><path class="cls-322" d="M3.84,1.86a1.1,1.1,0,0,1-.06-.16,1.81,1.81,0,0,0-.22-.39A1.63,1.63,0,0,0,3.05.86a1.65,1.65,0,0,0-.79-.2,1.68,1.68,0,0,0-.79.2,1.58,1.58,0,0,0-.5.45,1.55,1.55,0,0,0-.23.39.87.87,0,0,0-.05.16.48.48,0,0,1,0-.16,1.45,1.45,0,0,1,.21-.41A1.77,1.77,0,0,1,1.45.83,1.77,1.77,0,0,1,2.26.61a1.74,1.74,0,0,1,.81.22,1.54,1.54,0,0,1,.51.46,1.28,1.28,0,0,1,.22.41A.48.48,0,0,1,3.84,1.86Z" transform="translate(0.75 1.63)"/><path class="cls-323" d="M3.82,1.8s0-.06-.06-.15a1.36,1.36,0,0,0-.23-.38A1.64,1.64,0,0,0,3,.85,1.57,1.57,0,0,0,2.26.66a1.63,1.63,0,0,0-.77.19A1.59,1.59,0,0,0,1,1.27a1.36,1.36,0,0,0-.23.38L.7,1.8l.05-.16A1.46,1.46,0,0,1,1,1.25a1.66,1.66,0,0,1,.5-.43A1.72,1.72,0,0,1,2.26.61a1.65,1.65,0,0,1,.79.21,1.71,1.71,0,0,1,.51.43,1.81,1.81,0,0,1,.22.39C3.81,1.74,3.83,1.8,3.82,1.8Z" transform="translate(0.75 1.63)"/><path class="cls-324" d="M3.8,1.73s0-.05-.06-.14a2,2,0,0,0-.24-.36A1.53,1.53,0,0,0,3,.84a1.63,1.63,0,0,0-1.49,0,1.58,1.58,0,0,0-.5.39,1.87,1.87,0,0,0-.23.36c-.05.09-.06.15-.07.14a.69.69,0,0,1,.06-.15A2.05,2.05,0,0,1,1,1.21,1.77,1.77,0,0,1,1.5.8,1.81,1.81,0,0,1,2.26.61,1.86,1.86,0,0,1,3,.8a1.93,1.93,0,0,1,.5.41,2.05,2.05,0,0,1,.22.37A1,1,0,0,1,3.8,1.73Z" transform="translate(0.75 1.63)"/><path class="cls-325" d="M3.78,1.67l0,0,0-.1a2.49,2.49,0,0,0-.24-.34A1.55,1.55,0,0,0,3,.83,1.71,1.71,0,0,0,2.26.65a1.7,1.7,0,0,0-.72.18,1.6,1.6,0,0,0-.49.36,2.25,2.25,0,0,0-.23.34l-.06.1a.16.16,0,0,0,0,0s0,0,.05-.14A1.58,1.58,0,0,1,1,1.18,1.65,1.65,0,0,1,1.52.79,1.75,1.75,0,0,1,2.26.62,1.72,1.72,0,0,1,3,.79a1.53,1.53,0,0,1,.49.39,1.29,1.29,0,0,1,.23.35A.55.55,0,0,1,3.78,1.67Z" transform="translate(0.75 1.63)"/><path class="cls-326" d="M3.75,1.61a1.66,1.66,0,0,0-.31-.45A1.7,1.7,0,0,0,3,.81a1.72,1.72,0,0,0-.7-.16,1.76,1.76,0,0,0-.7.16,1.64,1.64,0,0,0-.47.35,1.9,1.9,0,0,0-.32.45l.06-.14a2,2,0,0,1,.24-.33A1.58,1.58,0,0,1,1.55.78,1.61,1.61,0,0,1,2.26.62,1.66,1.66,0,0,1,3,.78a1.88,1.88,0,0,1,.48.36,1.43,1.43,0,0,1,.23.33A.55.55,0,0,1,3.75,1.61Z" transform="translate(0.75 1.63)"/><path class="cls-327" d="M3.72,1.55a.64.64,0,0,0-.07-.12,2.2,2.2,0,0,0-.24-.31A1.7,1.7,0,0,0,2.26.65a1.68,1.68,0,0,0-1.14.47,1.3,1.3,0,0,0-.24.31c-.06.07-.07.12-.08.12l.06-.13a2.2,2.2,0,0,1,.24-.31A1.78,1.78,0,0,1,1.57.77,1.7,1.7,0,0,1,2.26.62,1.63,1.63,0,0,1,3,.77a1.85,1.85,0,0,1,.48.34,1.51,1.51,0,0,1,.23.31A.44.44,0,0,1,3.72,1.55Z" transform="translate(0.75 1.63)"/><path class="cls-328" d="M3.69,1.49a1.43,1.43,0,0,0-.31-.4A1.65,1.65,0,0,0,2.26.65a1.62,1.62,0,0,0-1.11.44,2,2,0,0,0-.32.4.11.11,0,0,0,0,0L.9,1.37a1.34,1.34,0,0,1,.24-.29,1.61,1.61,0,0,1,2.25,0,1.34,1.34,0,0,1,.24.29l.05.08S3.7,1.49,3.69,1.49Z" transform="translate(0.75 1.63)"/><path class="cls-329" d="M3.66,1.43a.63.63,0,0,0-.08-.11,1.32,1.32,0,0,0-.24-.26A1.65,1.65,0,0,0,2.26.65a1.69,1.69,0,0,0-1.08.41,1.73,1.73,0,0,0-.24.26l-.07.11A1.39,1.39,0,0,1,1.17,1,1.68,1.68,0,0,1,2.26.62,1.64,1.64,0,0,1,3.35,1,1.33,1.33,0,0,1,3.66,1.43Z" transform="translate(0.75 1.63)"/><path class="cls-330" d="M3.62,1.37l-.07-.1A1.78,1.78,0,0,0,3.31,1,1.6,1.6,0,0,0,2.26.65a1.59,1.59,0,0,0-1,.38A1.78,1.78,0,0,0,1,1.27l-.08.1A.59.59,0,0,1,1,1.27,1.73,1.73,0,0,1,1.21,1a1.65,1.65,0,0,1,1-.39A1.66,1.66,0,0,1,3.32,1a1.21,1.21,0,0,1,.23.26C3.6,1.33,3.63,1.37,3.62,1.37Z" transform="translate(0.75 1.63)"/><path class="cls-331" d="M3.59,1.32l-.08-.1-.1-.1A.87.87,0,0,0,3.27,1a1.57,1.57,0,0,0-1-.35,1.52,1.52,0,0,0-1,.35l-.15.12L1,1.22l-.08.1A.59.59,0,0,1,1,1.22l.09-.11L1.25,1a1.66,1.66,0,0,1,1-.36,1.67,1.67,0,0,1,1,.36l.14.13.1.11Z" transform="translate(0.75 1.63)"/><path class="cls-332" d="M3.55,1.26l-.08-.08A1.05,1.05,0,0,0,3.23,1a1.58,1.58,0,0,0-1-.32,1.58,1.58,0,0,0-1,.32,1.22,1.22,0,0,0-.23.21L1,1.26l.07-.09A2.58,2.58,0,0,1,1.28,1a1.75,1.75,0,0,1,1-.33,1.72,1.72,0,0,1,1,.33,1.23,1.23,0,0,1,.23.22Z" transform="translate(0.75 1.63)"/><path class="cls-333" d="M3.5,1.21l-.07-.08A1.78,1.78,0,0,0,3.2.94a1.74,1.74,0,0,0-.94-.3,1.71,1.71,0,0,0-.93.3,1.78,1.78,0,0,0-.23.19L1,1.21a1.31,1.31,0,0,1,.3-.28,1.66,1.66,0,0,1,.94-.3,1.61,1.61,0,0,1,.94.3A1.31,1.31,0,0,1,3.5,1.21Z" transform="translate(0.75 1.63)"/><path class="cls-334" d="M3.46,1.16l-.08-.07A1.64,1.64,0,0,0,3.16.91a1.68,1.68,0,0,0-.9-.27,1.68,1.68,0,0,0-.89.27,1.86,1.86,0,0,0-.23.18.36.36,0,0,0-.07.07A1.36,1.36,0,0,1,1.36.9a1.63,1.63,0,0,1,.9-.27,1.6,1.6,0,0,1,.9.27A1.29,1.29,0,0,1,3.46,1.16Z" transform="translate(0.75 1.63)"/></g><path class="cls-335" d="M3.94,2.26A1.68,1.68,0,1,1,2.26.59,1.68,1.68,0,0,1,3.94,2.26Z" transform="translate(0.75 1.63)"/><path class="cls-336" d="M4.53,2.26A2.27,2.27,0,1,1,2.26,0,2.27,2.27,0,0,1,4.53,2.26Z" transform="translate(0.75 1.63)"/></g></g></g></g></svg>